<svg xmlns="http://www.w3.org/2000/svg" viewBox="0 0 450 350"><path fill="#55AAC8" d="M450.07 351.166H106.01l-88.514-91.51h342.749z"/><path fill="#5FBFE1" d="M159.766 352.69a.474.474 0 0 1-.34-.143l-90.653-92.811a.477.477 0 0 1 .68-.666l90.653 92.811a.477.477 0 0 1-.34.809zM126.325 352.69a.474.474 0 0 1-.34-.143l-90.653-92.811a.477.477 0 0 1 .68-.666l90.653 92.811a.477.477 0 0 1-.34.809zM192 352.69a.474.474 0 0 1-.34-.143l-90.653-92.811a.477.477 0 0 1 .68-.666l90.653 92.811a.477.477 0 0 1-.34.809zM224.233 352.69a.474.474 0 0 1-.34-.143l-90.653-92.811a.477.477 0 0 1 .68-.666l90.653 92.811a.477.477 0 0 1-.34.809zM256.466 352.69a.474.474 0 0 1-.34-.143l-90.653-92.811a.477.477 0 0 1 .68-.666l90.653 92.811a.477.477 0 0 1-.34.809zM288.7 352.69a.474.474 0 0 1-.34-.143l-90.653-92.811a.477.477 0 0 1 .68-.666l90.653 92.811a.477.477 0 0 1-.34.809zM320.933 352.69a.474.474 0 0 1-.34-.143l-90.653-92.811a.477.477 0 0 1 .68-.666l90.653 92.811a.477.477 0 0 1-.34.809zM353.166 352.69a.474.474 0 0 1-.34-.143l-90.653-92.811a.477.477 0 0 1 .68-.666l90.653 92.811a.477.477 0 0 1-.34.809zM385.4 352.69a.474.474 0 0 1-.34-.143l-90.653-92.811a.477.477 0 0 1 .68-.666l90.653 92.811a.477.477 0 0 1-.34.809zM417.633 352.69a.474.474 0 0 1-.34-.143l-90.653-92.811a.477.477 0 0 1 .68-.666l90.653 92.811a.477.477 0 0 1-.34.809z"/><path fill="#5FBFE1" d="M359.97 259.879H16.893a.476.476 0 1 1 0-.952H359.97a.476.476 0 1 1 0 .952z"/><path fill="#FFF" d="M187.737 239.688v.295h-10.108v-8.252l.181-.057c1.875 6.577 7.214 7.814 9.927 8.014zM309.828 309.937a1.957 1.957 0 0 1-.334 2.751c-.857.676-2.094.523-2.76-.333a1.968 1.968 0 0 1 .619-2.941 1.952 1.952 0 0 1 2.475.523z"/><path fill="#046F97" d="M310.628 314.934l-6.672 3.131-1.57-2.008-.295-.371-1.57-2.018 4.664-5.711 1.256-.571.914 2.027a1.968 1.968 0 0 0-.619 2.941 1.958 1.958 0 0 0 3.084.009l1.742 1.447-.934 1.124z"/><path fill="#046F97" d="M315.025 309.623l-3.464 4.188-1.742-1.447a1.959 1.959 0 0 0 .01-2.427 1.953 1.953 0 0 0-2.475-.523l-.914-2.027 5.054-2.284.809 1.037 1.904 2.446h.01l.808 1.037z"/><path fill="#C3A46B" d="M274.823 341.659l27.563-25.602 1.57 2.008-25.888 23.88-.904-.076-1.846-.162zM300.52 313.668l1.571 2.018-31.513 20.529.076-.495.295-1.827.143-.885zM321.659 300.8c.228.276.333.619.333.952 0 .457-.209.914-.6 1.218l-7.176 5.615h-.01l-1.904-2.446 7.186-5.606a1.547 1.547 0 0 1 2.171.267zM177.667 175.987h2.541v9.48h-2.541zM173.499 175.987h2.541v9.48h-2.541zM168.74 180.603a2.426 2.426 0 0 1 2.436 2.427 2.429 2.429 0 0 1-2.436 2.437 2.432 2.432 0 0 1 0-4.864z"/><path fill="#C3A46B" d="M171.376 175.987v2.808l-2.636 1.808-2.665-1.694v-2.922zM224.018 70.494c.343 4.749-3.226 8.88-7.976 9.223-4.749.343-8.88-3.226-9.223-7.976s3.226-8.87 7.976-9.223c4.75-.342 8.871 3.227 9.223 7.976zm-2.484.181c-.247-3.379-3.188-5.91-6.558-5.672-3.379.247-5.92 3.188-5.672 6.558a6.128 6.128 0 0 0 6.558 5.672 6.136 6.136 0 0 0 5.672-6.558z"/><path fill="#C3A46B" d="M221.534 70.675a6.13 6.13 0 1 1-12.232.889 6.13 6.13 0 0 1 12.232-.889z"/><path fill="#FFF" d="M173.499 175.987v9.48h2.541v-9.48h-2.541zm-2.323 7.043a2.427 2.427 0 0 0-2.436-2.427l2.636-1.808v-2.808h-5.301v2.922l2.665 1.694a2.433 2.433 0 1 0 0 4.864 2.43 2.43 0 0 0 2.436-2.437zm6.491 2.436h2.541v-9.48h-2.541v9.48zm7.272 44.8c0 .761.619 1.39 1.38 1.39.771 0 1.39-.628 1.39-1.39a1.386 1.386 0 1 0-2.77 0zm-30.932-20.463c-5.054-1.199-16.523-7.138-21.681-13.477a14.098 14.098 0 0 1-1.732-2.579c.79-2.246 1.894-5.035 3.207-8.118l7.252-3.122s5.815-12.449 7.433-14.676c-1.732-.933-2.941-1.589-4.673-2.522h-.01c3.921-6.853 7.89-12.439 10.888-13.953.438.971.942 1.989 1.342 2.846 7.49-1.447 21.757-5.606 22.757-6.158.99-.552 1.837-1.504 1.97-2.636.048-.438-.038-.799-.238-1.066l.057-.048 4.883-1.371.266-.01c.086 5.273.704 10.517 2.17 15.609 1.608-1.818 3.217-3.645 4.949-5.33l.257.257c3.341 10.355 6.091 19.064 7.367 29.819v.01c-2.237 11.469-2.969 27.135.057 50.091h-.295v16.305l-1.713.095v-3.95h-10.736v-5.834h-.048v-.295c.98.067 1.618 0 1.618 0l-6.101-6.567-6.12-6.605c.01 2.008.257 3.712.676 5.159l-.181.057h-6.586v-7.776h-7.29l-2.417 11.983h-4.721c-.295-8.642-.59-17.284-.895-25.926-.418.026-1.008-.041-1.712-.212zm35.948 2.113V188.427h-26.164V211.916l13.077 7.414 13.087-7.414z"/><path fill="#E6E6E5" d="M202.727 249.539v4.463l.01.162-4.445.257-.029-.419v-4.216l.257-.019 1.714-.095 2.493-.143z"/><path fill="#FFF" d="M217.251 245.303v-11.936h-11.859c-3.493-21.624-3.626-38.337-.761-57.543l-.095-.048c3.388-6.605 7.167-13.686 10.431-19.349 1.561 2.008 2.798 4.702 3.036 6.995.048.409.333.866.742.895.333.019.59-.276.78-.552 3.502-4.968 5.73-10.983 6.624-17.017l.257.038c.714.314 1.323.59 2.037.904l.01.01c-.276.247-.476.581-.523.933-.133.885.371 1.761 1.066 2.322.685.562 1.551.866 2.389 1.161 6.91 2.427 13.82 5.092 20.729 7.519.219-1.047.666-2.065.933-3.531l.048.01c3.245 1.647 8.118 8.471 13.011 16.37l-.409.276c-1.504 1.037-3.131 2.037-4.645 3.074 2.398 5.692 5.025 11.174 8.29 16.418 2.627-.247 5.178.124 7.766.571l.761-.076c.999 1.78 1.894 3.379 2.674 4.721-.438.99-.942 1.951-1.504 2.884v.01c-4.844 8.09-13.734 13.686-23.128 14.638a26.02 26.02 0 0 1-2.855.152c-.828-1.77-6.558-9.356-7.928-10.736-.866 15.361.029 37.042-1.075 54.954v.067h-13.781c4.14-3.988 6.872-7.319 6.872-7.319l-11.602.685v-4.54l-4.978.276-4.464.247-4.454.247-4.464.247-4.454.247-2.494.143v-4.369h17.017zm19.901-33.387V188.427h-26.164V211.916l13.087 7.414 13.077-7.414z"/><path fill="#E42226" d="M200.234 241.449h17.017v3.855h-17.017z"/><path fill="#969696" d="M337.448 330.143l12.525-.162 17.693-.238 12.373-.162 9.042 6.348h12.525l3.655 7.271h-70.43c-10.631-3.836-15.076-12.82-15.076-12.82l17.693-.237z"/><path fill="#969696" d="M390.033 326.726h6.501v9.203h-6.501z"/><path fill="#E6E6E5" d="M390.033 326.726v9.204h-.952l-9.041-6.349-12.373.162v-5.082h22.366z"/><path fill="#046F97" d="M382.809 322.443h4.845v2.218h-19.987v5.082l-17.693.238v-6.9h7.299v-3.807h7.453v-5.397h5.234v-8.013h5.559v9.365l4.987 2.379 2.303 1.104z"/><path fill="#969696" d="M374.957 292.929s.324 12.287-12.287 17.922l12.287-17.922z"/><path fill="#E42226" d="M337.448 318.874v6.891l-10.317-2.37z"/><path fill="#FDD9C1" d="M290.146 225.659c4.54 3.931 7.681 9.432 10.165 14.971 3.017 6.738 4.14 12.554 8.176 18.74 5.349 6.329 13.934 10.831 22.014 12.687.885.2 1.837.4 2.503 1.028.657.628.838 1.856.105 2.398l-.057.209c.314.086.619.19.914.333.857.409 1.608 1.18 1.704 2.122.133 1.418-1.161 2.522-2.341 3.322l-.286.152c.333.628.352 1.447-.143 1.932l-.133.2c-1.723 1.98-4.407 3.103-7.033 2.941v.048c-1.275 2.389-4.054 3.693-6.767 3.817-2.703.133-5.349-.742-7.842-1.818a50.178 50.178 0 0 1-12.915-8.099c-.095 1.704-.171 2.95-.676 4.578-.495 1.637-1.447 3.188-2.903 4.074-1.456.895-3.341.952-4.692-.086 1.066-6.681-.914-8.842-1.437-13.248-.152-1.342-.314-2.713-.095-4.055.457-2.817 2.551-5.368 2.208-8.204l.171-.114c-.971-1.456-2.056-2.827-3.198-4.15-2.922-3.379-6.234-6.453-9.099-9.889-3.407-4.102-6.244-9.194-6.443-14.4h-.114c-6.167-5.958-9.242-10.907-16.018-20.149 9.394-.952 18.283-6.548 23.128-14.638 4.055 9.66 8.918 16.285 11.259 25.117l-.155.181z"/><path fill="#FFF" d="M266.105 172.484c4.254 6.843 8.518 14.486 11.764 20.263l-.761.076c-2.589-.447-5.139-.819-7.766-.571-3.265-5.244-5.891-10.726-8.29-16.418 1.513-1.037 3.141-2.037 4.645-3.074l.408-.276zM242.701 309.899l-21.89-33.464h12.144l2.484 3.655s10.907-1.323 18.455 2.084c9.794 4.435 11.374 17.845-2.322 21.672l4.102 6.053h-12.973zm4.683-12.211c8.052-2.189 6.462-9.165.714-10.888-3.56-1.076-8.166-.086-8.166-.086l7.452 10.974zM250.762 80.706c.476 6.634-4.844 9.375-9.213 10.755-1.894.6-3.598.942-4.578 1.237.676-1.761.952-3.569 1.056-4.93h-.01c-.029-.067-.324-.571-2.646-4.549-18.397 6.796-45.113-5.035-45.113-5.035l-2.836 3.217c-.219 1.884-.628 3.731-.514 5.425-.619-.495-1.808-1.247-3.093-2.332-2.855-2.417-6.177-6.481-4.825-13.106 2.322-11.345 20.035-15.99 38.061-14.962 15.314.877 32.902 13.078 33.711 24.28zm-34.72-.989c4.749-.343 8.318-4.473 7.976-9.223-.352-4.749-4.473-8.318-9.223-7.976-4.749.352-8.318 4.473-7.976 9.223s4.474 8.318 9.223 7.976z"/><path fill="#55AAC8" d="M248.097 286.8c5.749 1.723 7.338 8.699-.714 10.888l-7.452-10.974s4.607-.99 8.166.086z"/><path fill="#024259" d="M238.418 95.925l-3.502.105c.923-.98 1.58-2.141 2.046-3.331h.01c.98-.295 2.684-.638 4.578-1.237l-1.494 4.416-1.638.047z"/><path fill="#024259" d="M238.018 87.768h.01c-.105 1.361-.381 3.169-1.056 4.93h-.01c-.466 1.19-1.123 2.351-2.046 3.331a8.22 8.22 0 0 1-3.455 2.18c-1.713.562-3.541.885-5.416 1.056-3.312.295-6.767.105-10.012-.171-.504-.048-1.009-.086-1.504-.133-3.265-.305-7.119-.657-10.688-1.313-1.608-.295-3.16-.647-4.568-1.085-1.856-.581-3.474-1.142-4.949-1.856a18.688 18.688 0 0 1-2.77-1.599 21.275 21.275 0 0 1-3.188-2.76c-.999-1.047-1.38-2.237-1.456-3.521-.114-1.694.295-3.541.514-5.425-.001-.001 21.861 14.104 50.594 6.366z"/><path fill="#046F97" d="M238.018 87.768c-28.734 7.738-50.595-6.367-50.595-6.367l2.836-3.217s26.716 11.83 45.113 5.035c2.323 3.978 2.618 4.483 2.646 4.549z"/><path fill="#FFF" d="M224.075 219.33l-13.087-7.414v-15.761h26.164v15.761z"/><path fill="#FDD9C1" d="M236.705 109.63c.695 1.237.942 9.184-5.178 8.023-.01-.352-.019-.695-.019-1.037 0-.999.048-1.942.162-2.808.171-1.209.343-2.246.523-3.15.324-.876.657-1.085 1.332-1.732s2.295-.895 3.18.704z"/><path fill="#046F97" d="M213.273 190.13h21.595v4.311h-21.595z"/><path fill="#6E3C30" d="M231.67 113.809a21.697 21.697 0 0 0-.162 2.808l-2.417.038c-.105-5.358-.01-11.45 2.37-18.445a8.22 8.22 0 0 0 3.455-2.18l3.502-.105c-3.008 8.585-4.863 7.976-6.224 14.733a56.513 56.513 0 0 0-.524 3.151z"/><path fill="#6E3C30" d="M231.527 117.654c.143 5.692 1.39 12.801-.895 17.017-1.332 2.475-4.083 5.13-7.443 7.49a47.174 47.174 0 0 1-5.063 3.074c-5.301 2.779-11.059 4.483-14.971 3.769-3.293-.609-6.672-2.703-9.727-5.425-2.17-1.923-4.178-4.169-5.891-6.424-3.36-4.426-5.587-8.899-5.653-11.164-.114-3.845 1.171-7.614 2.475-11.364l2.199.771c-.923 2.789-1.475 5.568-1.037 9.165.381 3.112 2.284 6.501 4.435 8.794 2.237 2.379 5.92 3.274 9.004 2.18 2.646-.933 4.302-1.504 5.872-1.342 2.884.295 5.634 2.522 7.719 4.14 2.674 2.084 6.729 1.57 9.48-.419 7.871-5.701 7.205-12.516 7.062-21.262l2.417-.038c-.002.343.008.685.017 1.038z"/><path fill="#046F97" d="M228.453 147.701c.4-.39.961-.59 1.475-.438 8.004 2.636 15.238 5.415 23.242 8.052a14.82 14.82 0 0 1-.124.79c-.266 1.466-.714 2.484-.933 3.531-6.91-2.427-13.82-5.092-20.729-7.519-.838-.295-1.704-.6-2.389-1.161-.695-.562-1.199-1.437-1.066-2.322.048-.353.248-.686.524-.933z"/><path fill="#6E3C30" d="M223.685 102.911c-2.094-.371-5.197-.504-7.338-.742a51.592 51.592 0 0 1-.933-.114c-.447-.067-.276-2.199.619-2.96 3.245.276 6.7.466 10.012.171v.01c1.361.609 1.028 4.711-.838 4.007-.39-.153-.913-.267-1.522-.372z"/><path fill="#E6E6E5" d="M225.541 248.263v4.54l-4.978.295V248.539z"/><path fill="#6E3C30" d="M218.717 108.003a2.617 2.617 0 0 1 2.132 3.017 2.607 2.607 0 0 1-3.017 2.132 2.602 2.602 0 0 1-2.132-3.008 2.613 2.613 0 0 1 3.017-2.141z"/><path fill="#E6E6E5" d="M220.563 253.051v.047l-4.445.267-.019-.314v-4.264l4.464-.248z"/><path fill="#FFF" d="M218.003 163.424c-.238-2.294-1.475-4.987-3.036-6.995-1.009-1.313-2.17-2.341-3.274-2.77 3.017-1.713 5.368-4.388 6.938-7.462l-.504-.961a47.075 47.075 0 0 0 5.063-3.074l.923.286c1.028 1.428 1.171 1.723 2.189 3.16-.048.381-.095.761-.152 1.142-.895 6.034-3.122 12.049-6.624 17.017-.19.276-.447.571-.78.552-.41-.029-.696-.486-.743-.895z"/><path fill="#FCC29A" d="M218.127 145.236l.504.961c-1.57 3.074-3.921 5.749-6.938 7.462a93.37 93.37 0 0 1-1.551 3.36c-9.204 1.818-12.63-1.704-12.63-1.704-.266-1.78-.609-3.56-1.161-5.244-1.342-1.923-2.379-4.045-3.122-6.263l.2-.228c3.055 2.722 6.434 4.816 9.727 5.425 3.911.713 9.669-.99 14.971-3.769z"/><path fill="#E6E6E5" d="M216.099 253.051l.019.314-4.435.266-.038-.58v-4.017l4.454-.247z"/><path fill="#FFF" d="M217.879 114.027c-2.551-.438-4.074-3.997-3.398-7.957.352-2.027.771-2.741 1.865-3.902 2.141.238 5.244.371 7.338.742.352 1.275.305 3.169.038 4.74-.675 3.96-3.292 6.815-5.843 6.377zm-2.179-3.883a2.603 2.603 0 0 0 2.132 3.008 2.607 2.607 0 0 0 3.017-2.132 2.617 2.617 0 0 0-2.132-3.017 2.613 2.613 0 0 0-3.017 2.141z"/><path fill="#C3A46B" d="M210.988 188.426h26.164v7.728h-26.164v-7.728zm2.285 6.015h21.595v-4.311h-21.595v4.311z"/><path fill="#E6E6E5" d="M211.645 253.051l.038.58-4.492.267-.01-.153v-4.463l4.464-.248z"/><circle fill="#046F97" cx="207.495" cy="260.284" r="2.256"/><path fill="#046F97" d="M210.141 157.018c-.885 1.837-1.856 3.769-2.855 5.863-6.748 1.095-9.099-1.732-9.099-1.732-.124-1.142-.238-2.256-.362-3.331-.095-.828-.2-1.666-.314-2.503.001 0 3.427 3.521 12.63 1.703z"/><path fill="#E6E6E5" d="M207.181 253.745l.01.153-4.454.266-.01-.162v-4.473l4.454-.247v.047z"/><path fill="#FFF" d="M207.286 162.881c-.78 1.647-1.57 3.398-2.341 5.301h-.01c-5.197.343-6.034-.999-6.139-1.237-.01-.019-.01-.029-.01-.029-.2-1.97-.4-3.902-.6-5.768.001.001 2.352 2.828 9.1 1.733zM200.529 233.368c-3.027-22.956-2.294-38.622-.057-50.091l.057.485a567.204 567.204 0 0 1 4.007-7.985l.095.048c-2.865 19.206-2.732 35.919.761 57.543h-4.863z"/><path fill="#6E3C30" d="M199.272 96.563c1.409.438 2.96.79 4.568 1.085.619.999.124 3.112-.333 3.093a7.018 7.018 0 0 1-.857-.076c-2.398-.314-5.492-1.599-7.614-1.837a4.461 4.461 0 0 0-1.133 0c-1.98.305-1.075-3.902.4-4.074l.019-.048c1.476.715 3.094 1.276 4.95 1.857z"/><path fill="#FFF" d="M204.535 175.777a567.204 567.204 0 0 0-4.007 7.985l-.057-.485v-.01a79.73 79.73 0 0 1 2.77-10.507 94.388 94.388 0 0 1 1.694-4.578h.01a99.467 99.467 0 0 1 2.341-5.301c.999-2.094 1.97-4.026 2.855-5.863a93.37 93.37 0 0 0 1.551-3.36c1.104.428 2.265 1.456 3.274 2.77-3.264 5.663-7.042 12.744-10.431 19.349z"/><path fill="#FFF" d="M200.471 183.268c-.39-3.464-.771-7.262-1.152-11.107.171.143 1.942 1.628 3.921.6a79.894 79.894 0 0 0-2.769 10.507z"/><path fill="#046F97" d="M200.234 237.099h17.017v4.35h-17.017z"/><path fill="#FFF" d="M200.234 233.368h17.017v3.731h-17.017z"/><path fill="#046F97" d="M197.293 258.495a2.255 2.255 0 0 1 2.256 2.256 2.255 2.255 0 0 1-2.256 2.256 2.253 2.253 0 0 1-2.246-2.256 2.251 2.251 0 0 1 2.246-2.256zM198.796 166.945c.105.238.942 1.58 6.139 1.237a94.388 94.388 0 0 0-1.694 4.578c-1.98 1.028-3.75-.457-3.921-.6l-.01-.01c-.171-1.74-.342-3.482-.514-5.205z"/><path fill="#E6E6E5" d="M198.263 254.002l.029.419-4.483.267v-4.407l-.009-.247 4.463-.248z"/><path fill="#FFF" d="M200.471 183.268c-1.275-10.755-4.026-19.463-7.367-29.819l-.257-.257a37.602 37.602 0 0 1 3.502-3.122c.552 1.685.895 3.464 1.161 5.244.114.838.219 1.675.314 2.503.124 1.075.238 2.189.362 3.331.2 1.865.4 3.798.6 5.768 0 0 0 .01.01.029l.514 5.206.01.01a863.18 863.18 0 0 0 1.151 11.107z"/><path fill="#6E3C30" d="M199.796 107.889a2.611 2.611 0 1 1-5.149-.876 2.602 2.602 0 0 1 3.008-2.132 2.609 2.609 0 0 1 2.141 3.008z"/><path fill="#C3A46B" d="M129.385 323.338H116.793l-8.718-10.469h78.872l9.165 10.469h-60.484z"/><path fill="#FFF" d="M196.826 110.906c-2.551-.438-4.074-3.997-3.398-7.957.247-1.466.933-3.065 1.608-4.121 2.122.238 5.216 1.523 7.614 1.837v.01c.581 1.418.352 1.923.019 3.845-.675 3.959-3.292 6.814-5.843 6.386zm.828-6.025a2.603 2.603 0 0 0-3.008 2.132 2.611 2.611 0 1 0 5.149.876 2.607 2.607 0 0 0-2.141-3.008z"/><path fill="#E6E6E5" d="M193.809 250.281v4.407l-4.454.266v-4.673l4.445-.247z"/><path fill="#FDD9C1" d="M186.557 115.398c1.799-5.406 4.997-10.821 4.997-22.29a18.638 18.638 0 0 0 2.77 1.599l-.019.048c-1.475.171-2.379 4.378-.4 4.074a4.46 4.46 0 0 1 1.133 0c-.676 1.056-1.361 2.655-1.608 4.121-.676 3.959.847 7.519 3.398 7.957 2.551.428 5.168-2.427 5.844-6.386.333-1.923.562-2.427-.019-3.845v-.01c.295.048.581.067.857.076.457.019.952-2.094.333-3.093 3.569.657 7.424 1.009 10.688 1.313.495.048.999.086 1.504.133-.895.761-1.066 2.893-.619 2.96.286.038.6.076.933.114-1.095 1.161-1.513 1.875-1.865 3.902-.676 3.959.847 7.519 3.398 7.957 2.551.438 5.168-2.417 5.844-6.377.266-1.57.314-3.464-.038-4.74.609.105 1.133.219 1.523.371 1.865.704 2.199-3.398.838-4.007v-.01c1.875-.171 3.702-.495 5.416-1.056-2.379 6.995-2.475 13.087-2.37 18.445.143 8.747.809 15.561-7.062 21.262-2.751 1.989-6.805 2.503-9.48.419-2.084-1.618-4.835-3.845-7.719-4.14-1.57-.162-3.226.409-5.872 1.342-3.084 1.095-6.767.2-9.004-2.18-2.151-2.294-4.054-5.682-4.435-8.794-.441-3.597.111-6.376 1.034-9.165z"/><path fill="#FFF" d="M176.868 219.33l-13.077-7.414v-15.761h26.164v15.761z"/><path fill="#E6E6E5" d="M189.355 250.281v4.673l-4.511.267v-4.692z"/><path fill="#969696" d="M183.254 233.121l6.101 6.567s-.638.067-1.618 0c-2.713-.2-8.052-1.437-9.927-8.014-.419-1.447-.666-3.15-.676-5.159l6.12 6.606z"/><circle fill="#046F97" cx="187.099" cy="261.217" r="2.256"/><path fill="#FFF" d="M185.757 139.049s.895-1.18 1.437-1.637l.343-.257c1.713 2.256 3.721 4.502 5.891 6.424l-.2.228a24.541 24.541 0 0 0 3.122 6.263 37.333 37.333 0 0 0-3.502 3.122c-1.732 1.685-3.341 3.512-4.949 5.33-1.466-5.092-2.084-10.336-2.17-15.609a87.33 87.33 0 0 1 .028-3.864z"/><path fill="#046F97" d="M166.075 190.13h21.595v4.311h-21.595z"/><path fill="#024259" d="M186.128 89.691l-2.075-.6-.476-4.33.238-.266c1.285 1.085 2.475 1.837 3.093 2.332.076 1.285.457 2.475 1.456 3.521l-2.237-.647v-.01z"/><path fill="#969696" d="M187.708 230.266c0 .761-.619 1.39-1.39 1.39a1.39 1.39 0 0 1-1.38-1.39 1.385 1.385 0 0 1 2.77 0z"/><path fill="#FDD9C1" d="M187.156 103.653v.038a37.708 37.708 0 0 1-1.656 7.557c-1.323.01-2.456-.78-3.093-1.932s-.771-2.522-.657-3.836c.086-1.085.352-2.199 1.009-3.065.666-.866 1.789-1.437 2.855-1.199 1.057.229 1.523.686 1.542 2.437z"/><path fill="#6E3C30" d="M187.156 103.653c.485-4.673-.143-8.594-1.028-13.953l2.237.647a21.217 21.217 0 0 0 3.188 2.76c0 11.469-3.198 16.884-4.997 22.29l-2.199-.771c.39-1.133.79-2.256 1.142-3.379a38.07 38.07 0 0 0 .914-3.255c.352-1.532.59-2.95.742-4.302l.001-.037z"/><circle fill="#046F97" cx="176.896" cy="261.683" r="2.256"/><path fill="#046F97" d="M166.694 259.894c1.247 0 2.256 1.009 2.256 2.256s-1.009 2.256-2.256 2.256c-1.237 0-2.246-1.009-2.246-2.256s1.008-2.256 2.246-2.256z"/><path fill="#C3A46B" d="M163.791 188.426h26.164v7.728h-26.164v-7.728zm2.284 6.015h21.595v-4.311h-21.595v4.311z"/><circle fill="#046F97" cx="156.5" cy="262.616" r="2.256"/><path fill="#046F97" d="M154.226 150.27c10.212-2.836 14.552-4.502 24.746-6.405.685-.124 1.247.057 1.551.476.2.266.286.628.238 1.066-.133 1.133-.98 2.084-1.97 2.636-.999.552-15.266 4.711-22.757 6.158-.4-.857-.904-1.875-1.342-2.846a16.71 16.71 0 0 1-.466-1.085z"/><path fill="#FFF" d="M148.486 167.83c-1.618 2.227-7.433 14.676-7.433 14.676l-7.252 3.122c2.713-6.339 6.329-13.886 10.003-20.32h.01c1.732.933 2.94 1.59 4.672 2.522z"/><path fill="#046F97" d="M147.43 249.529c-1.332-.78-2.541-1.504-3.664-2.465l.095-.105h4.902v-4.892h6.976v-6.129h5.597l2.417-11.983h7.29v7.776h6.586v8.252h10.156v5.834h10.736v3.95l-.257.019-4.464.247-4.445.247-4.511.247v4.692l-33.378 1.989-.029-.533c.714-1.304.647-2.998-.152-4.245-.885-1.369-2.446-2.082-3.855-2.901z"/><path fill="#FDD9C1" d="M143.766 247.064c1.123.961 2.332 1.685 3.664 2.465 1.409.819 2.969 1.532 3.855 2.903.799 1.247.866 2.941.152 4.245l.029.533-5.996.352a23.285 23.285 0 0 0-5.187-11.745l1.371-.98a13.946 13.946 0 0 0 2.112 2.227z"/><path fill="#FDD9C1" d="M123.855 262.33l-.504.362c-4.388 1.056-7.252-2.798-9.08-6.301-1.009-1.932-1.694-3.769-2.151-4.616-.571-1.056-1.133-2.141-1.332-3.322-.19-1.18.038-2.494.876-3.35 1.056-1.095 2.722-1.171 4.197-1.599.495-.152.971-.333 1.399-.609 1.123-.723 2.046-2.113 3.379-1.942.676.086 1.247.6 1.923.742 1.78.352 3.122-1.932 4.94-1.98 1.846-.057 3.122 2.189 4.968 2.237.742.01 1.437-.333 2.16-.495 1.466-.314 2.998.019 4.311.78a7.662 7.662 0 0 1 2.36 2.132c.114.162.238.314.352.466l-1.371.98a23.276 23.276 0 0 1 5.187 11.745c.162 1.133.219 2.322-.19 3.398-.409 1.066-1.418 1.98-2.56 1.961-1.551-.019-2.579-1.57-3.312-2.941a409.298 409.298 0 0 0-1.561-2.893c.685 1.342 1.456 3.959 1.475 5.454.019 1.504-1.761 2.589-3.236 2.874-1.028.2-2.084-.286-2.836-1.018a6.775 6.775 0 0 1-1.047-1.38c-.257 3.693-3.817 3.331-5.454 2.303-1.18-.742-2.094-1.827-2.893-2.988z"/><path fill="#969696" d="M114.271 256.391c1.827 3.502 4.692 7.357 9.08 6.301l.504-.362c.799 1.161 1.713 2.246 2.893 2.989 1.637 1.028 5.197 1.39 5.454-2.303.295.504.638.971 1.047 1.38.752.733 1.808 1.218 2.836 1.018 1.475-.286 3.255-1.371 3.236-2.874-.019-1.494-.79-4.112-1.475-5.454.523.961 1.047 1.932 1.561 2.893.733 1.371 1.761 2.922 3.312 2.941 1.142.019 2.151-.895 2.56-1.961.409-1.076.352-2.265.19-3.398l5.996-.352 33.378-1.989 4.511-.266 4.454-.266 4.483-.266 4.445-.257 4.454-.266 4.492-.266 4.435-.266 4.445-.266 4.978-.295 11.602-.685s-2.732 3.331-6.872 7.319c-5.977 5.758-14.866 12.896-22.737 13.458-13.325.952-108.814 0-108.814 0l-2.465-6.881h6.31l1.237-3.902h5.073l.838-2.57 1.018-3.141h3.531l.01-.013zm95.48 3.893a2.255 2.255 0 0 0-2.256-2.256c-1.247 0-2.256 1.009-2.256 2.256s1.009 2.256 2.256 2.256a2.255 2.255 0 0 0 2.256-2.256zm-10.203.466a2.255 2.255 0 0 0-2.256-2.256 2.253 2.253 0 0 0-2.246 2.256 2.253 2.253 0 0 0 2.246 2.256 2.255 2.255 0 0 0 2.256-2.256zm-10.193.467a2.255 2.255 0 0 0-2.256-2.256c-1.247 0-2.256 1.009-2.256 2.256s1.009 2.256 2.256 2.256a2.255 2.255 0 0 0 2.256-2.256zm-10.203.466a2.255 2.255 0 0 0-2.256-2.256c-1.247 0-2.256 1.009-2.256 2.256s1.009 2.256 2.256 2.256a2.255 2.255 0 0 0 2.256-2.256zm-10.203.466a2.255 2.255 0 0 0-2.256-2.256c-1.237 0-2.246 1.009-2.246 2.256s1.009 2.256 2.246 2.256a2.255 2.255 0 0 0 2.256-2.256zm-10.193.467a2.255 2.255 0 0 0-2.256-2.256 2.255 2.255 0 0 0-2.256 2.256 2.255 2.255 0 1 0 4.512 0zM135.876 290.978l-10.593 9.042h-38.67l-3.331-9.042h42.819z"/><path fill="#E6E6E5" d="M126.529 288.742l-.428 2.236h-10.755l-.847-2.236h.01z"/><path fill="#FDD9C1" d="M124.616 219.016c2.456-7.214 5.263-15.466 7.709-22.69 5.159 6.339 16.627 12.278 21.681 13.477-3.141 5.044-5.929 9.546-9.07 14.59l-.143.276c.067 6.225-1.989 12.449-5.749 17.398l-.105.171c-1.313-.761-2.846-1.095-4.311-.78-.723.162-1.418.504-2.16.495-1.846-.048-3.122-2.294-4.968-2.237-1.818.048-3.16 2.332-4.94 1.98-.676-.143-1.247-.657-1.923-.742-1.332-.171-2.256 1.218-3.379 1.942-.428.276-.904.457-1.399.609v-.247c.504-3.912.495-7.881 1.142-11.764.657-3.893 2.065-7.804 4.902-10.536a11.877 11.877 0 0 1 2.713-1.942z"/><path fill="#046F97" d="M97.92 279.671h8.927v5.482H97.92z"/><path fill="#E42226" d="M104.506 221.376v8.566H66.673v-8.566z"/><path fill="#046F97" d="M66.673 211.706h37.832v9.67H66.673z"/><path fill="#FFF" d="M66.673 203.417h37.832v8.29H66.673z"/><path fill="#E6E6E5" d="M97.491 289.16a1.233 1.233 0 1 0-1.237-1.228c0 .676.552 1.228 1.237 1.228zm5.073 0c.676 0 1.237-.552 1.237-1.228 0-.685-.562-1.237-1.237-1.237a1.233 1.233 0 0 0 0 2.465zm5.073 0a1.233 1.233 0 1 0 0-2.465 1.233 1.233 0 0 0 0 2.465zm7.709 1.818H91.733l2.912-5.825H113.147l1.351 3.588.848 2.237z"/><path fill="#FFF" d="M85.994 259.437c.952 4.645 3.836 11.716 3.836 11.716s-5.711 3.807-10.469 2.693-5.872-5.073-8.09-4.283-3.017 2.379-4.921 3.017c-1.904.628-9.518 1.742-13.639-1.428 0 0 3.017-6.034 3.645-10.793.038-.305.086-.619.133-.923.685-4.492 2.046-9.08 3.674-9.223 1.751-.162 8.566-1.428 8.566-1.428l1.428-3.969 6.348 1.114s2.541 8.404 4.121 8.88c1.589.476 4.445-.638 5.235 3.969.038.211.076.43.133.658z"/><circle fill="#FBC2B4" cx="192.467" cy="115.398" r="4.102"/><circle fill="#FBC2B4" cx="222.733" cy="118.729" r="4.102"/><path fill="#FFEDE1" d="M206.564 99.58c1.802 4.667 1.57 10.078-.623 14.574-.692 1.419-1.565 2.742-2.286 4.147-.72 1.405-1.294 2.927-1.317 4.506-1.204-1.58-.935-3.865-.092-5.664s2.172-3.331 3.065-5.105c1.891-3.758 1.655-8.221.931-12.365M234.265 110.926a3.671 3.671 0 0 1 2.556.417c.171-.868-.109-1.833-.783-2.408s-1.732-.683-2.462-.184c-.459.314-.755.818-.96 1.335-.16.402-.64 1.531-.213 1.827.565-.452 1.136-.837 1.862-.987zM181.862 104.536c.525-.841 1.413-1.446 2.388-1.625s2.02.069 2.81.668c.277-.876-.238-1.888-1.058-2.302s-1.851-.28-2.627.212c-.91.577-1.5 1.63-1.517 2.707M285.912 220.255c.835 2.139 1.957 4.605 4.205 5.072-.333 0-2.164-5.469-2.408-6.059a233.229 233.229 0 0 0-2.753-6.376c-1.832-4.074-3.581-8.55-6.015-12.294-1.369 1.429-1.215 2.292-.328 3.938a150.047 150.047 0 0 1 2.651 5.137 139.148 139.148 0 0 1 4.648 10.582z"/><path fill="#FFEDE1" d="M283.347 222.787a38.067 38.067 0 0 1 14.05 15.814c3.597 7.583 4.719 16.428 9.884 23.043 3.036 3.888 7.276 6.7 11.779 8.714 4.504 2.013 9.298 3.28 14.068 4.538.387-.761.015-1.731-.628-2.292-.643-.561-1.494-.81-2.315-1.043-6.427-1.831-13.068-3.845-18.054-8.294-3.971-3.544-6.569-8.367-8.625-13.276-2.056-4.909-3.655-10.016-6.057-14.765-1.52-3.005-3.387-5.876-5.764-8.276-2.039-2.064-5.167-4.928-8.338-4.163zM327.485 276.168c1.412.287 2.88.287 4.26.701s2.731 1.388 3.006 2.802c.888-.413.934-1.762.33-2.533-.604-.771-1.596-1.105-2.529-1.4l-4.994-1.578c-1.388-.439-3.708-1.72-5.139-1.626-1.649.108.52 1.541 1.284 2.051 1.119.746 2.445 1.36 3.782 1.583zM321.779 279.213c2.466 1.01 5.145 1.405 7.629 2.37 1.21.47 2.562 1.417 2.374 2.702.948-.238 1.249-1.559.779-2.416-.47-.857-1.416-1.326-2.328-1.678-2.381-.922-4.906-1.412-7.334-2.203-1.173-.382-2.331-.839-3.41-1.441-.924-.515-1.848-1.592-2.808-1.884.707 2.19 3.075 3.721 5.098 4.55zM311.37 277.768c.907 4.098 4.645 7.403 8.823 7.802.951.091 1.932.049 2.834.365.901.317 1.728 1.132 1.663 2.085.967-.524.908-2.048.163-2.858-.744-.81-1.884-1.096-2.953-1.358-2.07-.507-4.149-1.078-6.022-2.095s-3.546-2.528-4.39-4.485M257.831 214.701l10.17 11.669c1.06 1.216 2.131 2.448 2.874 3.88s1.139 3.107.763 4.676a182.658 182.658 0 0 1-15.661-19.566l2.312-.285"/><path fill="#FFEDE1" d="M277.911 245.602c3.15 4.108 7.029 7.598 10.398 11.528 1.744 2.034 3.437 4.467 3.19 7.135-2.285-3.738-5.436-6.855-8.534-9.952-3.099-3.097-6.213-6.26-8.4-10.056-1.07-1.858-1.896-3.874-2.346-5.974-.25-1.168-1.083-5.311.208-5.916.855 5.014 2.336 9.13 5.484 13.235zM288.82 271.18c-1.348 5.971 2.403 12.162 1.285 18.18l1.036.187a25.593 25.593 0 0 0-.156-10.714c-.543-2.357-1.428-4.72-1.134-7.121.164-1.338.688-2.601 1.016-3.908.276-1.099.519-2.592-.054-3.636-.315.222-.249 1.21-.327 1.609a14.52 14.52 0 0 1-.488 1.76c-.402 1.211-.896 2.395-1.178 3.643zM146.433 218.064c-1.163 1.576-2.408 3.152-3.002 5.019-.484 1.523-.504 3.147-.657 4.737a28.055 28.055 0 0 1-5.214 13.744c.379.43 1.103.373 1.564.034.461-.34.724-.879.969-1.397 1.718-3.631 3.457-7.327 4.06-11.298.211-1.387.284-2.81.744-4.136.343-.989.891-1.891 1.435-2.786l7.38-12.133c-.058.096-1.153-.364-1.334-.345-.478.052-.413.116-.716.488-.654.803-1.102 1.904-1.651 2.789a78.711 78.711 0 0 1-3.578 5.284zM127.458 216.418c-.218.654-.45 1.331-.926 1.83-.476.499-1.272.764-1.872.426l8.056-22.393c.446.671.892 1.097.835 1.862-.061.824-.61 1.826-.873 2.615l-1.74 5.22-3.48 10.44z"/><path fill="#FFEDE1" d="M124.634 220.781c-3.539 2.107-6.118 5.761-6.918 9.801.016-4.467 2.501-8.847 6.327-11.153 2.698-1.625 5.994-2.179 9.088-1.639.569.099 1.84.208 2.276.611.622.576-.025.594-.658.537-1.664-.149-3.223-.293-4.893-.029-1.838.29-3.623.92-5.222 1.872zM113.414 246.934c1.473-.76 3.449-.246 4.747-1.276.629-.499 1.004-1.305 1.722-1.665 1.425-.714 3.16.74 4.679.255.769-.245 1.324-.949 2.091-1.201 1.805-.593 3.474 1.525 5.374 1.474 1.135-.031 2.128-.838 3.26-.922.951-.07 1.855.377 2.703.813l5.952 3.055c-1.252-1.424-2.517-2.86-4.043-3.984-1.526-1.125-3.356-1.929-5.252-1.914-1.08.009-2.176.28-3.228.034-1.655-.387-3.062-2.01-4.723-1.65-1.224.265-2.044 1.552-3.278 1.762-1.273.216-2.557-.795-3.803-.453-.998.274-1.579 1.311-2.468 1.841-1.04.62-2.359.475-3.515.835-1.383.43-2.493 1.639-2.805 3.053-.261 1.185.035 2.844 1.01 3.645.191-.629-.073-1.36.179-2.056.251-.693.74-1.306 1.398-1.646z"/><path fill="#FFEDE1" d="M143.769 249.249c1.414 1.082 2.996 1.955 4.267 3.202 1.271 1.247 2.221 3.01 1.908 4.762.888-.016 1.663-.749 1.889-1.608.226-.859-.027-1.792-.514-2.534-.597-.911-1.506-1.563-2.394-2.193l-4.053-2.877c-1.167-.829-2.558-2.208-3.88-2.667-.627 1.176 1.987 3.311 2.777 3.915zM117.1 249.912l6.971 9.456c1.736 2.355 3.523 4.759 5.965 6.37-.852.433-1.905.308-2.76-.119-.855-.426-1.544-1.12-2.178-1.834-3.466-3.905-5.712-8.716-7.909-13.453M136.714 265.074c-1.308.535-2.861.031-3.925-.899-1.064-.93-1.737-2.22-2.355-3.491a118.739 118.739 0 0 1-2.683-5.974c-.805-1.915-1.869-3.938-2.378-5.945 1.022.655 1.827 3.005 2.475 4.069a94.816 94.816 0 0 0 5.75 8.391c.284.37 2.854 3.956 3.116 3.849zM132.569 246.649l10.302 15.131c.085.125.174.259.18.411.011.28-.28.5-.56.508s-.541-.136-.775-.292c-1.781-1.188-2.813-3.19-3.769-5.105l-5.159-10.328M121.295 262.059c.172.16.362.382.276.601-.107.273-.504.235-.778.132-1.739-.652-3.208-1.901-4.359-3.358-1.151-1.457-2.009-3.122-2.793-4.806-.7-1.503-1.417-3.038-1.954-4.608-.137-.401-.432-1.29.205-.932.362.204.806 1.651 1.012 2.04a41.805 41.805 0 0 0 5.012 7.393 41.65 41.65 0 0 0 3.379 3.538z"/><path fill="#FCC29A" d="M202.449 125.394c1.277 1.451 3.432 2.144 5.254 1.497 1.822-.647 3.084-2.716 2.628-4.594-1.232 1.609-3.468 2.372-5.426 1.852-2.092-.555-3.041-2.154-3.776-4.005-.767 1.503.311 4.103 1.32 5.25zM233.198 111.931c.416-.187.95-.185 1.286.123.272.249.364.639.381 1.007a3.429 3.429 0 0 1-1.412 2.901c-.279.199-.63.359-.958.258-.434-.134-.614-.649-.664-1.101-.135-1.228.135-2.633 1.367-3.188zM185.27 104.217c-.488.026-.87.442-1.084.881-.532 1.093-.298 2.51.557 3.374.165.167.375.323.61.309.328-.02.538-.352.661-.657.38-.947 1.228-4.013-.744-3.907zM151.038 214.457l2.506-4.287a68.808 68.808 0 0 1-19.656-12.007c-1.573-1.371-2.762-.971-1.755 1.046.872 1.747 2.381 3.402 3.672 4.848a38.504 38.504 0 0 0 9.206 7.547c.521.307 5.827 3.195 6.027 2.853zM279.841 205.078c-.557 1.494-1.689 2.69-2.792 3.841-4.106 4.283-8.312 8.643-13.576 11.379-.883.459-1.948.871-2.84.429-.489-.242-.827-.701-1.146-1.144a14175.33 14175.33 0 0 1-3.437-4.761c.453.628 5.391-.921 6.097-1.138a28.677 28.677 0 0 0 5.896-2.569c3.79-2.182 6.705-5.122 9.318-8.583 2.08-2.756 3.344.228 2.48 2.546zM295.142 285.485c1.057-1.803 1.403-3.922 1.731-5.986.858.488 1.311 1.507 1.357 2.493s-.255 1.955-.597 2.881c-.609 1.65-1.422 3.321-2.856 4.338-.685.486-4.7 1.529-3.887-.324.272-.62 1.66-.832 2.217-1.205.833-.558 1.53-1.334 2.035-2.197zM295.925 277.963c4.791 3.49 9.642 7.015 15.131 9.255 2.234.912 4.598 1.609 7.011 1.615 2.413.006 4.894-.739 6.646-2.399.33 1.224-.433 2.545-1.515 3.206-1.082.662-2.404.79-3.672.777-4.403-.045-8.686-1.596-12.505-3.786-3.82-2.191-7.234-5.011-10.628-7.817M324.642 282.888c.74.168 1.501.319 2.154.707.653.387 1.188 1.07 1.169 1.829-.019.759-.768 1.484-1.502 1.289-.806-.214-1.046-1.22-1.572-1.867-.823-1.014-2.304-1.094-3.598-1.273a14.15 14.15 0 0 1-5.396-1.938c-.525-.319-4.665-3.455-3.649-3.921.579-.266 4.988 2.669 5.828 3.032a37.601 37.601 0 0 0 6.566 2.142zM326.62 277.388c1.393.133 2.823.146 4.138.624s2.528 1.56 2.668 2.953l-7.823-2.681c-2.854-.978-5.873-1.97-8.286-3.843a23.549 23.549 0 0 0 9.303 2.947zM140.813 246.257a23.75 23.75 0 0 1 4.716 11.243c.746-.2 1.532.016 2.303.061.771.045 1.676-.173 1.989-.879.18-.407.116-.879 0-1.309-.582-2.161-2.307-3.816-4.1-5.155-1.793-1.339-3.758-2.509-5.19-4.229"/><path fill="#9F5744" d="M187.45 89.765c1.857 3.686 2.098 8.008 1.519 12.094s-1.928 8.016-3.13 11.964c-1.051 3.455-2.002 7.015-1.824 10.621.324 6.551 4.272 12.29 8.076 17.633-2.478-2.476-4.972-4.973-6.92-7.883-1.948-2.911-3.336-6.299-3.342-9.802-.008-4.368 2.084-8.418 3.464-12.562a39.787 39.787 0 0 0 .857-22.024l1.945.369M230.186 115.763c-.175 3.797.228 7.597.194 11.397-.035 3.801-.543 7.704-2.39 11.026 3.169-3.162 4.075-7.95 4.093-12.427.017-4.477-.692-8.978-.084-13.413.834-6.104 4.253-10.734 6.702-16.173-2.094-.282-2.513.836-3.494 2.532a37.658 37.658 0 0 0-2.572 5.395 37.523 37.523 0 0 0-2.449 11.663zM207.764 138.598c.36.142.89.231 1.028-.131.081-.214-.054-.445-.194-.626a5.64 5.64 0 0 0-4.204-2.153c-1.019-.035-5.3 1.387-3.273 1.961.93.263 2.305-.061 3.314.079 1.138.157 2.259.448 3.329.87z"/><path fill="#086C95" d="M196.757 88.471c5.063 2.331 10.763 2.808 16.334 3.004a189.15 189.15 0 0 0 16.89-.161c-1.04 2.708-3.74 4.5-6.552 5.21s-5.764.508-8.657.301l-7.321-.524c-1.72-.123-3.452-.248-5.116-.702-1.663-.454-3.273-1.264-4.409-2.561s-1.737-3.128-1.301-4.796M237.633 95.591l1.828.3c.12.02.246.039.36-.002.187-.067.284-.269.361-.452l1.435-3.39c.071-.167.127-.393-.018-.501-.086-.064-.205-.052-.311-.036-.989.146-1.652.067-2.138.97-.171.319-1.174 3.173-1.517 3.111zM185.437 85.642l.455 4.007c-.591-.053-1.261-.151-1.593-.643-.185-.274-.224-.619-.256-.948l-.368-3.683 2.186 1.603"/><path fill="#078DC0" d="M252.979 157.115l.219-1.642c-4.328-1.603-8.957-2.349-13.174-4.225-3.274-1.457-6.412-3.619-9.994-3.716-.428-.012-1.75.056-1.915.607-.172.576 1.576.853 2.02.995a456.437 456.437 0 0 1 22.844 7.981zM179.12 145.306c.53-.108 1.199-.391 1.138-.928-.033-.292-.302-.512-.588-.583-.285-.071-.585-.024-.875.024a143.937 143.937 0 0 0-24.31 6.265c-.383.135.345 1.391.737 1.429.604.059 1.63-.515 2.211-.693a234.079 234.079 0 0 1 21.687-5.514zM147.43 249.529l3.907-.495.594-4.197 5.711-1.332 1.114-4.754h4.359l2.96-12.654 4.968-2.142h-7.29l-2.418 11.983h-5.596v6.129h-6.977v4.892h-4.901z"/><path fill="#C0BFBF" d="M201.682 154.538c7.833 2.029 16.761-1.25 21.419-7.866.537-.763 1.032-1.591 1.181-2.513.149-.922-.112-1.959-.854-2.526-5.258 3.849-11 7.864-17.515 7.875-3.943.007-7.344-2.051-10.559-4.334-3.247-2.306-4.959-5.467-7.818-8.02-.19 7.784 7.15 15.572 14.146 17.384zM145.636 259.437l89.968-5.539 1.539-1.78-91.615 5.383zM96.889 267.819h6.912l1.495-3.88h4.283l2.696-5.776 2.697-.338-.701-1.434-3.541.01-1.856 5.71h-5.073l-1.237 3.903h-6.31z"/><path fill="#FFF" d="M375.003 297.469h-6.123a.476.476 0 1 1 0-.952h6.123a.476.476 0 1 1 0 .952zM365.145 297.469h-6.123a.476.476 0 1 1 0-.952h6.123a.476.476 0 1 1 0 .952zM355.287 297.469h-6.123a.476.476 0 1 1 0-.952h6.123a.476.476 0 1 1 0 .952zM345.43 297.469h-6.123a.476.476 0 1 1 0-.952h6.123a.476.476 0 1 1 0 .952zM335.571 297.469h-6.122a.476.476 0 1 1 0-.952h6.122a.476.476 0 1 1 0 .952zM325.713 297.469h-6.122a.476.476 0 1 1 0-.952h6.122a.476.476 0 1 1 0 .952zM315.855 297.469h-6.122a.476.476 0 1 1 0-.952h6.122a.476.476 0 1 1 0 .952zM305.998 297.469h-6.123a.476.476 0 1 1 0-.952h6.123a.476.476 0 1 1 0 .952z"/><path fill="#02435A" d="M349.974 330.458a.476.476 0 0 1-.476-.476v-6.9c0-.263.213-.476.476-.476h6.824v-3.331c0-.263.213-.476.476-.476h6.976v-4.921c0-.263.213-.476.476-.476h4.759v-7.538c0-.263.213-.476.476-.476h5.558c.263 0 .476.213.476.476v9.066l7.02 3.353c.165.079.27.246.27.429v3.255h4.368c.263 0 .476.213.476.476v2.218a.476.476 0 1 1-.952 0v-1.742h-4.368a.476.476 0 0 1-.476-.476v-3.432l-7.019-3.353a.475.475 0 0 1-.271-.429v-8.89h-4.606v7.538a.476.476 0 0 1-.476.476h-4.759v4.921a.476.476 0 0 1-.476.476h-6.976v3.331a.476.476 0 0 1-.476.476h-6.824v6.424a.477.477 0 0 1-.476.477zM106.847 285.629a.476.476 0 0 1-.476-.476v-5.006h-7.976v5.006a.476.476 0 1 1-.952 0v-5.482c0-.263.213-.476.476-.476h8.927c.263 0 .476.213.476.476v5.482a.474.474 0 0 1-.475.476z"/><path fill="#8E191C" d="M337.448 330.624a.472.472 0 0 1-.476-.471v-4.009l-9.948-2.286a.475.475 0 0 1-.084-.9l10.317-4.521a.476.476 0 0 1 .667.436v11.27a.48.48 0 0 1-.476.481zm-8.808-7.371l8.333 1.914v-5.566l-8.333 3.652z"/><path fill="#836E48" d="M270.578 336.691a.473.473 0 0 1-.47-.548l.515-3.211a.476.476 0 0 1 .208-.322l29.428-19.34a.476.476 0 0 1 .637.106l1.57 2.018a.475.475 0 0 1-.116.691l-31.512 20.53a.488.488 0 0 1-.26.076zm.95-3.4l-.313 1.943 30.182-19.663-.982-1.263-28.887 18.983z"/><path fill="#836E48" d="M263.83 340.555a.476.476 0 0 1-.312-.835l7.119-6.186a.475.475 0 1 1 .625.717l-2.24 1.947 1.377-.879a.475.475 0 1 1 .513.801l-6.824 4.359a.472.472 0 0 1-.258.076zM278.069 342.421a.536.536 0 0 1-.04-.002l-3.251-.285a.477.477 0 0 1-.278-.823l27.563-25.603a.462.462 0 0 1 .362-.125.47.47 0 0 1 .336.181l1.571 2.009a.474.474 0 0 1-.052.642l-25.888 23.879a.478.478 0 0 1-.323.127zm-2.141-1.138l1.971.17 25.412-23.44-.982-1.256-26.401 24.526z"/><path fill="#836E48" d="M269.445 347.741a.476.476 0 0 1-.327-.822l5.872-5.558.657.689-1.206 1.141 2.451-1.713c.185-.186.458-.165.645.022.186.186.159.509-.027.695l-.009.009-7.783 5.45a.468.468 0 0 1-.273.087zM314.216 309.062a.48.48 0 0 1-.481-.476c0-.178.095-.332.237-.414l7.126-5.577c.262-.204.417-.519.417-.843 0-.244-.079-.474-.223-.648a1.073 1.073 0 0 0-1.513-.194l-7.184 5.605a.477.477 0 0 1-.585-.751l7.186-5.606a2.023 2.023 0 0 1 2.839.351c.275.332.432.777.432 1.243 0 .616-.293 1.211-.783 1.593l-7.175 5.615a.474.474 0 0 1-.293.102z"/><path fill="#02435A" d="M198.521 250.243a.476.476 0 0 1-.476-.476v-3.474h-10.26a.476.476 0 0 1-.476-.476v-5.358h-9.679a.476.476 0 0 1-.476-.476v-7.776h-6.11a.476.476 0 0 1-.476-.476v-7.3h-6.425l-2.34 11.6a.477.477 0 0 1-.467.382h-5.12v5.654a.476.476 0 0 1-.476.476h-6.501v4.416a.476.476 0 0 1-.476.476h-4.902a.476.476 0 1 1 0-.952h4.426v-4.416c0-.263.213-.476.476-.476h6.501v-5.654c0-.263.213-.476.476-.476h5.207l2.34-11.6a.477.477 0 0 1 .467-.382h7.291c.263 0 .476.213.476.476v7.3h6.11c.263 0 .476.213.476.476v7.776h9.632c.263 0 .523.213.523.476v5.358h10.26c.263 0 .476.213.476.476v3.95a.478.478 0 0 1-.477.476z"/><path fill="#636464" d="M173.411 273.791c-32.007 0-74.062-.414-74.697-.42a.476.476 0 0 1-.443-.315l-2.465-6.882a.475.475 0 0 1 .448-.637h5.961l1.132-3.57a.476.476 0 0 1 .454-.332h4.727l1.749-5.382a.475.475 0 0 1 .453-.329h3.531a.476.476 0 1 1 0 .952h-3.185l-1.749 5.382a.477.477 0 0 1-.453.328h-4.724l-1.132 3.57a.476.476 0 0 1-.454.332H96.93l2.126 5.934c6.202.06 95.682.91 108.445-.003 7.685-.547 16.445-7.549 22.441-13.326a100.98 100.98 0 0 0 6.119-6.436l-90.562 5.378a.473.473 0 0 1-.503-.447.476.476 0 0 1 .447-.503l91.674-5.444a.477.477 0 0 1 .396.777c-.028.033-2.797 3.398-6.91 7.36-6.108 5.885-15.064 13.021-23.034 13.589-4.424.319-18.015.424-34.158.424z"/><path fill="#42241C" d="M218.284 113.667c-.177 0-.355-.015-.534-.046a3.056 3.056 0 0 1-2-1.258 3.048 3.048 0 0 1-.52-2.301 3.051 3.051 0 0 1 1.256-2.002 3.084 3.084 0 0 1 4.309.737c.478.675.663 1.493.522 2.303a3.054 3.054 0 0 1-1.256 1.997 3.05 3.05 0 0 1-1.777.57zm-.008-5.225c-.441 0-.872.136-1.239.395a2.109 2.109 0 0 0-.868 1.385c-.098.562.03 1.126.359 1.591.33.466.822.775 1.383.869a2.136 2.136 0 0 0 1.601-.361c.465-.329.773-.82.867-1.38l.001-.003a2.105 2.105 0 0 0-.362-1.591 2.137 2.137 0 0 0-1.742-.905zM197.209 110.542c-.168 0-.337-.014-.508-.042a3.095 3.095 0 0 1-2.523-3.568 3.056 3.056 0 0 1 1.258-2 3.051 3.051 0 0 1 2.3-.52 3.06 3.06 0 0 1 1.997 1.248c.48.672.668 1.492.532 2.306l-.001.003a3.11 3.11 0 0 1-3.055 2.573zm-.004-5.223c-.435 0-.857.134-1.219.39a2.142 2.142 0 0 0 .875 3.853 2.154 2.154 0 0 0 2.466-1.754 2.123 2.123 0 0 0-.368-1.594 2.11 2.11 0 0 0-1.382-.863 2.124 2.124 0 0 0-.372-.032zm2.591 2.569h.009-.009z"/><path fill="#996143" d="M232.678 118.244c-.38 0-.793-.039-1.239-.123a.476.476 0 0 1 .177-.935c1.733.328 3.034-.105 3.881-1.283 1.401-1.948 1.181-5.349.794-6.04-.301-.543-.721-.869-1.218-.943-.505-.075-.977.12-1.218.35l-.284.267c-.477.444-.695.647-.931 1.286a.476.476 0 0 1-.893-.33c.314-.852.657-1.171 1.176-1.653l.274-.258c.499-.476 1.291-.713 2.019-.604.557.085 1.339.4 1.905 1.421.548.978.802 4.758-.852 7.059-.618.861-1.719 1.786-3.591 1.786zM185.483 111.724c-1.434 0-2.735-.812-3.493-2.177-.614-1.11-.854-2.492-.714-4.108.108-1.372.48-2.487 1.103-3.311.834-1.084 2.169-1.637 3.339-1.376 1.392.301 1.894 1.059 1.914 2.896l-.952.043v-.038c-.018-1.643-.433-1.813-1.166-1.971-.934-.206-1.868.363-2.378 1.024-.51.673-.818 1.62-.912 2.812-.124 1.428.077 2.627.599 3.568.586 1.057 1.577 1.687 2.655 1.687h.019l.014.952-.028-.001zM218.406 114.548c-.203 0-.405-.017-.608-.052-2.806-.481-4.504-4.297-3.787-8.505.369-2.122.842-2.932 1.988-4.149a.476.476 0 0 1 .693.652c-1.035 1.099-1.411 1.747-1.744 3.657-.629 3.69.72 7.013 3.01 7.406 1.071.184 2.203-.311 3.193-1.392 1.043-1.138 1.789-2.77 2.101-4.596.283-1.667.272-3.446-.028-4.533a.48.48 0 0 1 .459-.608c.236 0 .432.169.469.394.393 1.466.278 3.491.038 4.906-.342 2.004-1.172 3.808-2.338 5.079-1.039 1.139-2.243 1.741-3.446 1.741zM197.326 111.423c-.193 0-.386-.016-.579-.048-2.808-.482-4.506-4.298-3.788-8.506.234-1.383.893-3.071 1.678-4.298a.477.477 0 0 1 .801.513c-.721 1.128-1.325 2.676-1.54 3.944-.63 3.692.719 7.015 3.01 7.408 2.291.391 4.664-2.306 5.293-5.997l.132-.73c.244-1.318.326-1.763-.122-2.855a.477.477 0 0 1 .881-.361c.553 1.351.435 1.99.177 3.389l-.13.718c-.669 3.918-3.202 6.823-5.813 6.823zM205.985 125.036c-.348 0-.696-.037-1.039-.112-2.088-.475-3.748-2.365-3.949-4.494-.207-2.22 1.005-4.126 2.177-5.97.264-.416.527-.83.771-1.245a18.216 18.216 0 0 0 1.938-13.697.477.477 0 0 1 .922-.237 19.178 19.178 0 0 1-2.04 14.418c-.249.423-.518.846-.788 1.271-1.087 1.709-2.209 3.476-2.032 5.371.163 1.731 1.513 3.268 3.21 3.654 1.668.371 3.585-.462 4.453-1.938a.477.477 0 0 1 .82.484c-.908 1.541-2.669 2.495-4.443 2.495zM207.079 131.45c-4.515 0-8.754-1.55-12.351-4.631a.475.475 0 1 1 .619-.723c6.356 5.442 14.48 5.906 22.875 1.305a.477.477 0 0 1 .457.835c-3.917 2.146-7.854 3.214-11.6 3.214z"/><path fill="#996143" d="M219.44 129.141a.476.476 0 0 1-.452-.326 3.66 3.66 0 0 0-1.236-1.733.476.476 0 0 1 .578-.756 4.625 4.625 0 0 1 1.561 2.188.476.476 0 0 1-.451.627z"/><path fill="#42241C" d="M216.664 140.152c-1.56 0-3.108-.428-4.407-1.441l-.27-.211c-2.04-1.587-4.579-3.563-7.204-3.831-1.492-.156-3.153.431-5.666 1.317-3.243 1.152-7.153.204-9.508-2.303-2.449-2.612-4.196-6.084-4.561-9.063-.484-3.979.263-6.971 1.058-9.373.366-1.101.785-2.19 1.229-3.343 1.755-4.561 3.744-9.73 3.744-18.798a.476.476 0 1 1 .952 0c0 9.244-2.022 14.501-3.807 19.14-.44 1.142-.855 2.221-1.214 3.3-.8 2.417-1.477 5.175-1.017 8.958.336 2.746 2.028 6.093 4.311 8.527 2.104 2.24 5.599 3.085 8.497 2.056 2.636-.929 4.376-1.543 6.08-1.367 2.897.296 5.555 2.365 7.692 4.027l.27.211c2.627 2.048 6.471 1.335 8.909-.428 7.18-5.201 7.055-11.406 6.896-19.261l-.031-1.608c-.104-5.29-.013-11.529 2.394-18.606a.475.475 0 1 1 .901.307c-2.358 6.931-2.446 13.071-2.344 18.282l.031 1.606c.165 8.133.295 14.558-7.29 20.051-1.546 1.118-3.605 1.851-5.645 1.851zM187.157 104.129l-.05-.002a.476.476 0 0 1-.424-.523c.486-4.687-.18-8.72-1.024-13.826a.476.476 0 0 1 .938-.155c.856 5.177 1.532 9.265 1.032 14.08a.475.475 0 0 1-.472.426z"/><path fill="#002A38" d="M236.971 93.174a.476.476 0 0 1-.444-.647c.679-1.77.933-3.585 1.027-4.796a.491.491 0 0 1 .51-.438c.262.02.458.249.438.511-.098 1.274-.366 3.187-1.087 5.064a.475.475 0 0 1-.444.306z"/><path fill="#02435A" d="M238.028 88.245a.487.487 0 0 1-.446-.288 621.2 621.2 0 0 0-2.42-4.156c-17.257 6.102-41.689-3.745-44.773-5.044l-2.608 2.958a.476.476 0 0 1-.714-.63l2.836-3.217a.473.473 0 0 1 .549-.12c.266.118 26.753 11.675 44.757 5.023a.476.476 0 0 1 .575.207l.17.291c1.992 3.412 2.373 4.064 2.467 4.237a.474.474 0 0 1-.393.739z"/><path fill="#002A38" d="M236.971 93.174a.48.48 0 0 1-.481-.476c0-.233.164-.427.385-.468.379-.112.86-.232 1.414-.37a50.33 50.33 0 0 0 3.117-.853c6.329-2 9.233-5.358 8.881-10.268-.772-10.704-17.871-22.958-33.263-23.838-23.615-1.344-35.883 6.353-37.567 14.582-1.018 4.99.508 9.127 4.667 12.647a32.294 32.294 0 0 0 2.193 1.669c.358.255.662.472.89.654a.476.476 0 0 1-.595.744c-.217-.174-.507-.38-.848-.623a33.182 33.182 0 0 1-2.255-1.718c-4.387-3.714-6.064-8.277-4.986-13.564 2.452-11.976 21.129-16.337 38.555-15.341 15.799.903 33.357 13.609 34.159 24.72.389 5.414-2.734 9.091-9.545 11.243a50.85 50.85 0 0 1-3.174.869c-.556.138-1.036.258-1.41.37a.455.455 0 0 1-.137.021z"/><path fill="#002A38" d="M188.365 90.824a.463.463 0 0 1-.132-.019l-2.237-.647a.52.52 0 0 1-.088-.035l-1.986-.574a.476.476 0 0 1-.341-.405l-.476-4.33a.476.476 0 0 1 .946-.104l.441 4.014 1.769.511a.52.52 0 0 1 .088.035l2.149.622a.476.476 0 0 1-.133.932z"/><path fill="#836E48" d="M215.414 80.215c-4.722 0-8.724-3.66-9.07-8.44-.361-4.995 3.415-9.36 8.415-9.731 5.022-.362 9.362 3.416 9.733 8.415v.001c.36 5.006-3.416 9.371-8.416 9.731a9.172 9.172 0 0 1-.662.024zm.006-17.243c-.196 0-.392.007-.59.021-4.478.332-7.859 4.241-7.535 8.714a8.084 8.084 0 0 0 2.795 5.572 8.102 8.102 0 0 0 5.919 1.963c4.478-.323 7.859-4.232 7.535-8.714-.319-4.279-3.904-7.556-8.124-7.556z"/><path fill="#836E48" d="M215.403 77.725a6.544 6.544 0 0 1-4.306-1.609 6.573 6.573 0 0 1-2.268-4.521 6.548 6.548 0 0 1 1.591-4.795 6.572 6.572 0 0 1 4.522-2.272c3.603-.255 6.801 2.485 7.067 6.112v.001c.256 3.631-2.486 6.8-6.113 7.066a6.788 6.788 0 0 1-.493.018zm.009-12.262a5.628 5.628 0 0 0-4.271 1.959 5.606 5.606 0 0 0-1.362 4.104 5.626 5.626 0 0 0 1.941 3.871 5.625 5.625 0 0 0 4.107 1.362c3.103-.227 5.451-2.941 5.232-6.05-.218-2.97-2.71-5.246-5.647-5.246z"/><path fill="#02435A" d="M196.35 150.547a.474.474 0 0 1-.39-.204c-1.333-1.91-2.404-4.058-3.183-6.384a.476.476 0 0 1 .902-.302c.751 2.24 1.781 4.306 3.062 6.141a.475.475 0 0 1-.391.749zM211.693 154.135a.475.475 0 0 1-.236-.89c2.8-1.59 5.133-4.102 6.75-7.265.103-.197.204-.398.296-.6a.475.475 0 1 1 .866.395c-.099.218-.207.435-.317.642-1.698 3.324-4.163 5.973-7.124 7.654a.457.457 0 0 1-.235.064zM200.527 233.844a.475.475 0 0 1-.471-.414c-2.673-20.279-2.69-36.713-.052-50.244a.477.477 0 0 1 .935.182c-2.618 13.428-2.599 29.763.061 49.938a.477.477 0 0 1-.473.538z"/><path fill="#02435A" d="M200.472 183.744a.478.478 0 0 1-.468-.567 79.995 79.995 0 0 1 2.786-10.57 93.69 93.69 0 0 1 1.703-4.601.478.478 0 0 1 .618-.267.477.477 0 0 1 .267.618 93.885 93.885 0 0 0-1.686 4.555 78.653 78.653 0 0 0-2.753 10.445.477.477 0 0 1-.467.387z"/><path fill="#02435A" d="M204.945 168.658a.475.475 0 0 1-.441-.654 99.698 99.698 0 0 1 2.352-5.327 328.42 328.42 0 0 1 1.659-3.411c.413-.84.813-1.656 1.198-2.454a94.76 94.76 0 0 0 1.543-3.341.476.476 0 1 1 .874.376 93.782 93.782 0 0 1-1.559 3.377c-.387.801-.788 1.62-1.202 2.462-.535 1.09-1.09 2.219-1.653 3.4a96.632 96.632 0 0 0-2.329 5.275.478.478 0 0 1-.442.297zM226.302 146.082a.476.476 0 0 1-.389-.201c-.474-.67-.759-1.093-1.033-1.497a57.379 57.379 0 0 0-1.153-1.66.477.477 0 0 1 .772-.556c.556.771.855 1.214 1.171 1.683.27.399.551.817 1.021 1.479a.477.477 0 0 1-.389.752z"/><path fill="#02435A" d="M218.777 164.795c-.02 0-.039 0-.059-.002-.68-.047-1.119-.712-1.189-1.315-.219-2.121-1.346-4.708-2.938-6.758-1.008-1.311-2.099-2.24-3.071-2.617a.475.475 0 1 1 .344-.888c1.133.439 2.368 1.477 3.48 2.923 1.694 2.181 2.895 4.954 3.131 7.236.028.241.19.461.302.469h.001c.011 0 .124-.011.354-.347 3.358-4.762 5.62-10.576 6.547-16.817.056-.377.102-.754.15-1.131a.477.477 0 0 1 .945.117c-.047.385-.096.77-.153 1.154-.947 6.388-3.266 12.343-6.707 17.221-.128.186-.518.755-1.137.755zM187.899 158.998a.476.476 0 0 1-.457-.344c-1.378-4.79-2.095-9.936-2.189-15.732a88.131 88.131 0 0 1 .029-3.886.478.478 0 0 1 .097-.274c.038-.05.934-1.228 1.509-1.713a.476.476 0 0 1 .613.728c-.367.31-.976 1.059-1.272 1.441a88.813 88.813 0 0 0-.024 3.689c.093 5.711.797 10.776 2.152 15.484a.477.477 0 0 1-.458.607z"/><path fill="#02435A" d="M187.899 158.998a.475.475 0 0 1-.356-.791l.169-.192c1.535-1.733 3.12-3.526 4.804-5.164 1.219-1.219 2.378-2.253 3.542-3.156a.475.475 0 1 1 .583.752 36.842 36.842 0 0 0-3.458 3.082c-1.664 1.618-3.237 3.396-4.76 5.117l-.17.192a.468.468 0 0 1-.354.16zM200.471 183.744a.476.476 0 0 1-.472-.422 864.862 864.862 0 0 1-1.152-11.113.475.475 0 1 1 .947-.093c.384 3.878.761 7.644 1.151 11.1a.478.478 0 0 1-.42.527l-.054.001z"/><path fill="#02435A" d="M199.31 172.627a.477.477 0 0 1-.473-.429l-.514-5.206a.476.476 0 0 1 .427-.52.47.47 0 0 1 .52.427l.515 5.206a.476.476 0 0 1-.475.522z"/><path fill="#02435A" d="M198.786 167.392a.476.476 0 0 1-.472-.428c-.201-1.969-.401-3.901-.6-5.765l-.117-1.089c-.081-.761-.16-1.508-.244-2.238a119.48 119.48 0 0 0-.312-2.493c-.318-2.129-.67-3.722-1.142-5.16a.475.475 0 1 1 .905-.296c.488 1.491.852 3.132 1.179 5.322.116.847.221 1.688.317 2.519.084.732.164 1.482.245 2.246l.116 1.088c.2 1.867.4 3.8.6 5.77a.476.476 0 0 1-.425.522l-.05.002zM200.528 184.239a.476.476 0 0 1-.427-.686 564.2 564.2 0 0 1 4.011-7.992c3.775-7.358 7.484-14.237 10.443-19.371a.476.476 0 1 1 .826.475c-2.953 5.121-6.654 11.985-10.421 19.329a572.006 572.006 0 0 0-4.003 7.978.479.479 0 0 1-.429.267z"/><path fill="#02435A" d="M200.527 184.239a.476.476 0 0 1-.472-.422l-.057-.486c-1.303-11.001-4.238-20.102-7.346-29.736a.476.476 0 0 1 .906-.292c3.123 9.68 6.072 18.823 7.386 29.908l.058.497a.476.476 0 0 1-.475.531zM205.391 233.844a.474.474 0 0 1-.468-.4c-3.459-21.414-3.68-38.127-.762-57.69a.476.476 0 0 1 .941.14c-2.902 19.459-2.681 36.087.76 57.397a.475.475 0 0 1-.471.553zM252.114 160.112a.46.46 0 0 1-.158-.027c-3.458-1.214-6.972-2.51-10.371-3.762-3.395-1.251-6.906-2.544-10.358-3.757-.877-.309-1.783-.628-2.533-1.242-.907-.733-1.381-1.792-1.235-2.761.06-.446.301-.88.677-1.216.534-.522 1.282-.731 1.929-.54a.477.477 0 0 1-.271.913c-.323-.098-.706.028-1.007.322-.219.197-.355.432-.386.657-.115.768.387 1.477.894 1.888.623.51 1.449.801 2.246 1.082 3.459 1.215 6.974 2.51 10.373 3.762 3.395 1.251 6.906 2.544 10.358 3.757a.476.476 0 0 1-.158.924z"/><path fill="#02435A" d="M253.17 155.791a.46.46 0 0 1-.149-.024c-4.008-1.32-7.884-2.698-11.631-4.03-3.744-1.331-7.614-2.706-11.611-4.022a.475.475 0 1 1 .297-.904c4.008 1.32 7.884 2.698 11.631 4.03 3.744 1.331 7.614 2.706 11.611 4.022a.475.475 0 0 1-.148.928z"/><path fill="#02435A" d="M252.115 160.112a.475.475 0 0 1-.467-.573c.098-.468.237-.923.385-1.404.195-.64.398-1.302.546-2.114.047-.244.084-.502.121-.77a.476.476 0 0 1 .942.13c-.039.284-.079.559-.127.814-.157.863-.377 1.583-.572 2.218-.141.46-.274.895-.363 1.321a.476.476 0 0 1-.465.378zM228.443 148.167a.478.478 0 0 1-.191-.04l-2.036-.904a.475.475 0 1 1 .383-.871l2.036.904a.475.475 0 0 1-.192.911z"/><path fill="#02435A" d="M280.543 197.944a.477.477 0 0 1-.412-.237 345.54 345.54 0 0 1-2.387-4.209l-.906-1.614c-3.187-5.676-7.153-12.739-11.138-19.149-5.807-9.378-10.121-14.828-12.822-16.198a.475.475 0 1 1 .431-.848c2.899 1.47 7.216 6.882 13.199 16.544 3.996 6.427 7.967 13.501 11.159 19.184l.906 1.614c.881 1.57 1.677 2.988 2.38 4.197a.476.476 0 0 1-.41.716zM253.056 215.628a.476.476 0 0 1-.431-.274c-.812-1.738-6.551-9.31-7.834-10.602a.476.476 0 1 1 .675-.671c1.348 1.357 7.156 9.018 8.022 10.87a.476.476 0 0 1-.432.677z"/><path fill="#02435A" d="M279.039 200.828a.475.475 0 0 1-.408-.721 25.71 25.71 0 0 0 1.477-2.831.476.476 0 0 1 .87.384c-.433.981-.949 1.97-1.531 2.937a.475.475 0 0 1-.408.231zM244.052 259.846l-.03-.001a.476.476 0 0 1-.445-.504c.586-9.492.608-20.004.63-30.168.02-9.031.038-17.563.445-24.785.269-4.89.695-8.704 1.303-11.661a.48.48 0 0 1 .562-.37.477.477 0 0 1 .371.562c-.6 2.911-1.02 6.68-1.286 11.522-.405 7.197-.424 15.715-.443 24.734-.022 10.178-.046 20.704-.632 30.224a.475.475 0 0 1-.475.447zM261.051 176.31a.475.475 0 0 1-.268-.869c.74-.507 1.507-1.005 2.273-1.503.801-.52 1.601-1.04 2.369-1.57a.475.475 0 1 1 .541.784c-.775.535-1.584 1.06-2.391 1.585-.76.494-1.521.988-2.255 1.49a.468.468 0 0 1-.269.083z"/><path fill="#02435A" d="M269.341 192.728a.474.474 0 0 1-.404-.224c-2.91-4.674-5.555-9.912-8.324-16.484a.477.477 0 0 1 .878-.37c2.749 6.525 5.372 11.721 8.255 16.351a.476.476 0 0 1-.405.727z"/><path fill="#02435A" d="M277.107 193.299a.454.454 0 0 1-.082-.007c-2.437-.421-5.031-.811-7.64-.566a.472.472 0 0 1-.519-.429.475.475 0 0 1 .429-.518c2.722-.258 5.392.144 7.891.576a.476.476 0 0 1-.079.944zM224.075 219.806a.463.463 0 0 1-.234-.062l-13.087-7.414a.475.475 0 0 1-.242-.414v-23.489c0-.263.213-.476.476-.476h26.164c.263 0 .476.213.476.476v23.489a.477.477 0 0 1-.241.414l-13.077 7.414a.48.48 0 0 1-.235.062zm-12.611-8.168l12.611 7.144 12.602-7.144v-22.736h-25.212v22.736zm25.688.277h.009-.009z"/><path fill="#02435A" d="M237.152 196.631h-26.164a.476.476 0 1 1 0-.952h26.164a.476.476 0 1 1 0 .952zM224.075 219.806a.476.476 0 0 1-.476-.476v-19.464a.476.476 0 1 1 .952 0v19.464a.476.476 0 0 1-.476.476zM234.868 194.918h-21.595a.476.476 0 0 1-.476-.476v-4.311c0-.263.213-.476.476-.476h21.595c.263 0 .476.213.476.476v4.311a.476.476 0 0 1-.476.476zm-21.119-.953h20.643v-3.359h-20.643v3.359zM176.868 219.806a.47.47 0 0 1-.235-.062l-13.077-7.414a.477.477 0 0 1-.241-.414v-23.489c0-.263.213-.476.476-.476h26.164c.263 0 .476.213.476.476v23.489c0 .171-.092.33-.242.414l-13.087 7.414a.474.474 0 0 1-.234.062zm-12.601-8.168l12.601 7.144 12.611-7.144v-22.736h-25.212v22.736zm25.688.277h.009-.009z"/><path fill="#02435A" d="M189.955 196.631h-26.164a.476.476 0 1 1 0-.952h26.164a.476.476 0 1 1 0 .952zM176.868 219.806a.476.476 0 0 1-.476-.476v-19.464a.476.476 0 1 1 .952 0v19.464a.476.476 0 0 1-.476.476zM187.67 194.918h-21.595a.476.476 0 0 1-.476-.476v-4.311c0-.263.213-.476.476-.476h21.595c.263 0 .476.213.476.476v4.311a.476.476 0 0 1-.476.476zm-21.119-.953h20.643v-3.359h-20.643v3.359zM156.614 236.414a.477.477 0 0 1-.476-.46c-.295-8.641-.59-17.283-.894-25.925-.028-1.026-.064-2.04-.101-3.063l-.004-.097c-.196-5.789-.419-12.348-3.669-17.642a.476.476 0 1 1 .81-.498c3.382 5.508 3.62 12.494 3.811 18.108l.003.095c.037 1.025.074 2.042.102 3.067.304 8.638.599 17.28.894 25.923a.478.478 0 0 1-.46.492h-.016zM156.033 154.677a.477.477 0 0 1-.431-.275c-.152-.325-.318-.673-.491-1.034a86.838 86.838 0 0 1-.853-1.818c-.175-.377-.341-.75-.478-1.112a.476.476 0 0 1 .89-.336c.129.342.286.693.454 1.053.271.603.566 1.219.846 1.804.174.363.342.714.494 1.041a.474.474 0 0 1-.431.677z"/><path fill="#02435A" d="M156.033 154.677a.476.476 0 0 1-.09-.943c7.761-1.499 21.781-5.646 22.616-6.107.979-.545 1.626-1.396 1.728-2.275.023-.209.017-.509-.146-.725-.201-.277-.593-.382-1.086-.293-7.414 1.384-11.635 2.617-17.476 4.324-2.134.623-4.466 1.304-7.226 2.071a.476.476 0 0 1-.255-.917 523.316 523.316 0 0 0 7.214-2.068c5.868-1.714 10.108-2.953 17.571-4.347.867-.157 1.601.086 2.023.664.271.362.386.847.326 1.397-.139 1.186-.966 2.306-2.212 3.001-1.191.658-15.642 4.809-22.898 6.21a.526.526 0 0 1-.089.008z"/><path fill="#02435A" d="M180.579 144.769a.475.475 0 0 1-.128-.934l4.883-1.37a.476.476 0 0 1 .256.916l-4.883 1.37a.43.43 0 0 1-.128.018zM130.594 194.222a.476.476 0 0 1-.449-.634c.78-2.216 1.892-5.033 3.219-8.147 3.047-7.122 6.702-14.546 10.027-20.37 4.563-7.973 8.293-12.731 11.087-14.142a.475.475 0 1 1 .429.85c-2.589 1.307-6.285 6.067-10.691 13.765-3.308 5.793-6.945 13.181-9.978 20.271-1.318 3.094-2.423 5.891-3.196 8.089a.474.474 0 0 1-.448.318z"/><path fill="#02435A" d="M133.989 186.066l-.235-.418-.178-.441 7.123-3.065c.68-1.453 5.282-11.24 7.101-14.139l-4.213-2.274a.476.476 0 0 1 .452-.839l4.673 2.522a.476.476 0 0 1 .159.699c-1.573 2.165-7.329 14.473-7.386 14.597a.472.472 0 0 1-.244.236l-7.252 3.122zM104.506 230.418H66.673a.476.476 0 0 1-.443-.652.493.493 0 0 1-.033-.177v-26.173c0-.263.213-.476.476-.476h37.832c.263 0 .476.213.476.476v26.526a.474.474 0 0 1-.475.476zm-37.357-.952h36.881v-25.574H67.149v25.574z"/><path fill="#02435A" d="M104.506 212.182H66.673a.476.476 0 1 1 0-.952h37.832a.476.476 0 0 1 .001.952zM104.506 221.852H66.673a.476.476 0 1 1 0-.952h37.832a.476.476 0 0 1 .001.952zM200.234 250.147a.476.476 0 0 1-.476-.476v-16.303c0-.263.213-.476.476-.476h17.017c.263 0 .476.213.476.476v11.935a.476.476 0 0 1-.476.476H200.71v3.893a.476.476 0 0 1-.476.475zm.475-5.32h16.066v-10.983h-16.066v10.983z"/><path fill="#02435A" d="M217.251 237.575h-17.017a.476.476 0 1 1 0-.952h17.017a.476.476 0 1 1 0 .952zM217.251 241.925h-17.017a.476.476 0 1 1 0-.952h17.017a.476.476 0 1 1 0 .952zM66.673 249.424a.476.476 0 0 1-.476-.476V229.59a.476.476 0 1 1 .952 0v19.359a.476.476 0 0 1-.476.475zM205.166 158.018c-5.607 0-7.879-2.251-7.996-2.371a.477.477 0 0 1 .68-.666c.035.034 3.407 3.307 12.199 1.57a.476.476 0 1 1 .184.934c-1.927.381-3.609.533-5.067.533zM204.332 163.61c-4.654 0-6.425-2.053-6.512-2.157a.477.477 0 0 1 .73-.611c.038.044 2.33 2.596 8.659 1.569a.475.475 0 1 1 .153.94c-1.122.182-2.13.259-3.03.259zM203.322 168.715c-3.816 0-4.74-1.072-4.961-1.579a.64.64 0 0 1-.049-.219.476.476 0 0 1 .925-.159c.103.168.968 1.259 5.668.95l.041.951c-.593.038-1.132.056-1.624.056zm-4.059-1.798h.009-.009zM201.798 173.593c-1.079 0-2.077-.478-2.781-1.065-.181-.191-.2-.516-.009-.697.191-.181.466-.197.648-.007l.009.01c.361.297 1.785 1.322 3.357.505a.475.475 0 1 1 .438.845 3.579 3.579 0 0 1-1.662.409zM168.74 185.942a2.916 2.916 0 0 1-2.913-2.912c0-1.601 1.307-2.903 2.913-2.903s2.912 1.302 2.912 2.903a2.915 2.915 0 0 1-2.912 2.912zm0-4.863a1.959 1.959 0 0 0-1.961 1.951c0 1.081.88 1.961 1.961 1.961s1.96-.88 1.96-1.961a1.957 1.957 0 0 0-1.96-1.951z"/><path fill="#02435A" d="M168.74 181.079a.484.484 0 0 1-.256-.074l-2.665-1.694a.476.476 0 0 1-.22-.402v-2.922c0-.263.213-.476.476-.476h5.301c.263 0 .476.213.476.476v2.807a.476.476 0 0 1-.206.392l-2.636 1.808a.471.471 0 0 1-.27.085zm-2.189-2.431l2.179 1.385 2.17-1.489v-2.081h-4.349v2.185zM176.04 185.942h-2.541a.476.476 0 0 1-.476-.476v-9.479c0-.263.213-.476.476-.476h2.541c.263 0 .476.213.476.476v9.479a.475.475 0 0 1-.476.476zm-2.065-.951h1.589v-8.528h-1.589v8.528zM180.209 185.942h-2.541a.476.476 0 0 1-.476-.476v-9.479c0-.263.213-.476.476-.476h2.541c.263 0 .476.213.476.476v9.479a.476.476 0 0 1-.476.476zm-2.066-.951h1.589v-8.528h-1.589v8.528z"/><path fill="#996143" d="M144.937 224.869a.476.476 0 0 1-.404-.728c1.571-2.522 3.052-4.908 4.535-7.294 1.482-2.387 2.965-4.774 4.535-7.296a.476.476 0 0 1 .808.504c-1.571 2.522-3.052 4.908-4.535 7.294a7084.464 7084.464 0 0 1-4.535 7.296.477.477 0 0 1-.404.224zM124.616 219.491a.476.476 0 0 1-.45-.629c2.456-7.214 5.263-15.465 7.71-22.689a.475.475 0 1 1 .901.305c-2.446 7.224-5.254 15.476-7.71 22.691a.477.477 0 0 1-.451.322z"/><path fill="#996143" d="M115.861 243.733a.476.476 0 0 1-.473-.537c.22-1.703.344-3.452.464-5.144.154-2.181.314-4.436.681-6.637.796-4.712 2.492-8.346 5.041-10.801.85-.81 1.799-1.49 2.823-2.021 3.937-2.07 8.893-2.053 12.626.046a.475.475 0 1 1-.467.829c-3.456-1.942-8.057-1.956-11.719-.032a11.399 11.399 0 0 0-2.605 1.865c-2.398 2.309-4 5.765-4.761 10.27-.36 2.156-.518 4.388-.67 6.547-.122 1.706-.246 3.469-.469 5.199a.476.476 0 0 1-.471.416zM139.045 242.544a.476.476 0 0 1-.379-.764 27.911 27.911 0 0 0 5.652-17.105.475.475 0 0 1 .47-.481.462.462 0 0 1 .481.47 28.879 28.879 0 0 1-5.845 17.692.477.477 0 0 1-.379.188zM271.93 235.624a.478.478 0 0 1-.331-.134c-4.928-4.761-7.86-8.834-12.298-15.002a671.215 671.215 0 0 0-3.773-5.207.476.476 0 0 1 .767-.563 691.932 691.932 0 0 1 3.777 5.213c4.408 6.127 7.32 10.174 12.188 14.875a.476.476 0 0 1-.33.818zM290.298 225.954a.476.476 0 0 1-.46-.354c-1.406-5.304-3.764-9.87-6.261-14.702-1.659-3.211-3.374-6.531-4.977-10.352a.48.48 0 0 1 .439-.665c.218 0 .402.143.458.342 1.583 3.767 3.282 7.056 4.926 10.238 2.521 4.881 4.902 9.49 6.335 14.895a.477.477 0 0 1-.46.598z"/><path fill="#996143" d="M291.441 265.09a.474.474 0 0 1-.409-.233 22.84 22.84 0 0 0-.644-1.007c-.868-1.302-1.903-2.644-3.161-4.102-1.343-1.553-2.798-3.072-4.205-4.54-1.646-1.719-3.349-3.496-4.9-5.355-2.866-3.449-6.327-8.795-6.554-14.686-.06-1.337.059-2.662.354-3.933a.476.476 0 1 1 .928.216 13.525 13.525 0 0 0-.331 3.678c.217 5.627 3.564 10.783 6.334 14.117 1.529 1.834 3.221 3.599 4.856 5.306 1.415 1.477 2.878 3.004 4.236 4.576 1.285 1.488 2.343 2.861 3.234 4.196.233.35.457.69.67 1.049a.475.475 0 0 1-.408.718zM308.487 259.846a.475.475 0 0 1-.399-.216c-2.615-4.01-4.008-7.829-5.483-11.872-.811-2.226-1.651-4.529-2.728-6.935-3.058-6.817-6.249-11.521-10.043-14.805a23.11 23.11 0 0 0-3.062-2.279.475.475 0 1 1 .503-.806 24.026 24.026 0 0 1 3.184 2.369c3.899 3.376 7.168 8.185 10.284 15.132 1.091 2.437 1.937 4.756 2.754 6.998 1.456 3.991 2.83 7.76 5.386 11.678a.477.477 0 0 1-.396.736z"/><path fill="#996143" d="M292.272 290.447c-.954 0-1.878-.288-2.626-.863a.478.478 0 0 1-.18-.453c.703-4.402.067-6.743-.606-9.221-.323-1.192-.658-2.425-.833-3.896-.161-1.411-.319-2.801-.093-4.186.194-1.199.666-2.339 1.124-3.443.653-1.577 1.271-3.067 1.082-4.629a.475.475 0 0 1 .944-.114c.219 1.809-.475 3.485-1.147 5.106-.436 1.053-.887 2.141-1.064 3.231-.204 1.256-.054 2.58.092 3.86.173 1.463.499 2.662.813 3.821.655 2.413 1.333 4.907.674 9.326 1.118.709 2.66.679 3.927-.099 1.222-.744 2.18-2.095 2.697-3.806.494-1.599.566-2.865.656-4.468a.467.467 0 0 1 .502-.448.476.476 0 0 1 .448.502c-.094 1.667-.167 2.984-.696 4.692-.586 1.934-1.691 3.476-3.111 4.34-.811.5-1.719.748-2.603.748z"/><path fill="#996143" d="M318.422 291.048c-2.779 0-5.443-.987-7.489-1.869a50.434 50.434 0 0 1-13.037-8.177 49.525 49.525 0 0 1-2.453-2.279.476.476 0 1 1 .673-.673c.71.71 1.497 1.442 2.405 2.233a49.493 49.493 0 0 0 12.79 8.022c2.088.901 4.846 1.908 7.631 1.779 2.825-.129 5.264-1.495 6.37-3.565a.476.476 0 0 1 .84.448c-1.264 2.365-4.01 3.924-7.166 4.067-.188.01-.376.014-.564.014z"/><path fill="#996143" d="M325.629 286.866a.476.476 0 0 1-.472-.541c.101-.735-.576-1.425-1.266-1.701-.62-.255-1.301-.307-2.022-.362-.241-.019-.481-.037-.719-.063-3.948-.392-7.696-2.743-9.775-6.134a.474.474 0 0 1 .156-.654.474.474 0 0 1 .654.156c1.928 3.143 5.4 5.322 9.064 5.686.232.025.463.043.692.06.763.059 1.552.12 2.307.429 1.046.419 2.021 1.486 1.851 2.713a.476.476 0 0 1-.47.411zM332.899 284.031a.477.477 0 0 1-.333-.816c.337-.33.283-.939.056-1.369a2.467 2.467 0 0 0-.138-.199c-.422-.534-1.152-.846-1.81-1.079-1.363-.481-2.803-.827-4.196-1.162-1.09-.262-2.218-.533-3.313-.868-3.142-.964-5.364-2.321-6.792-4.151a.474.474 0 0 1 .082-.667.474.474 0 0 1 .667.082c1.306 1.67 3.373 2.922 6.322 3.826 1.068.327 2.18.595 3.257.853 1.417.34 2.881.692 4.29 1.19.787.28 1.668.663 2.243 1.391.082.105.15.205.216.317.479.902.384 1.928-.218 2.517a.482.482 0 0 1-.333.135z"/><path fill="#996143" d="M326.229 287.186c-.176 0-.35-.005-.525-.016a.488.488 0 0 1-.461-.49.462.462 0 0 1 .461-.461h.029c2.486.14 5.05-.911 6.674-2.777a.475.475 0 1 1 .717.625c-1.698 1.953-4.301 3.119-6.895 3.119zM333.327 281.946a.475.475 0 0 1-.267-.87c.971-.657 2.248-1.672 2.134-2.883-.082-.814-.795-1.431-1.435-1.737a4.578 4.578 0 0 0-.833-.303c-.495-.134-1.028-.216-1.544-.295l-.242-.037a32.836 32.836 0 0 1-9.622-3.13.474.474 0 1 1 .431-.847 31.854 31.854 0 0 0 9.34 3.038l.236.036c.542.083 1.102.168 1.649.317.385.104.702.22.997.363 1.112.531 1.867 1.49 1.969 2.503.163 1.718-1.376 2.971-2.548 3.763a.46.46 0 0 1-.265.082z"/><path fill="#996143" d="M333.109 275.959a.477.477 0 0 1-.284-.858c.211-.155.269-.398.28-.573a1.479 1.479 0 0 0-.43-1.098c-.549-.518-1.389-.707-2.2-.889-8.952-2.056-17.277-6.857-22.351-12.863a.475.475 0 1 1 .727-.613c4.947 5.853 13.08 10.537 21.758 12.53.969.218 1.982.446 2.722 1.145.491.469.767 1.177.724 1.849-.033.534-.269.987-.662 1.279a.492.492 0 0 1-.284.091zM129.218 266.489c-.991 0-2-.313-2.722-.767-1.397-.879-2.4-2.203-3.033-3.122a31.726 31.726 0 0 1-.74-1.128l-.145-.228a136.594 136.594 0 0 1-6.085-10.719.474.474 0 1 1 .847-.431 135.527 135.527 0 0 0 6.041 10.641l.144.226c.234.368.47.74.719 1.098.944 1.372 1.794 2.252 2.757 2.858.902.566 2.429.881 3.478.351.748-.381 1.167-1.15 1.246-2.285a.473.473 0 0 1 .507-.442c.263.019.46.245.442.507-.129 1.86-1.032 2.694-1.765 3.067-.513.263-1.098.374-1.691.374z"/><path fill="#996143" d="M135.616 265.934c-.931 0-1.907-.426-2.699-1.197a7.226 7.226 0 0 1-1.126-1.481 19.38 19.38 0 0 1-.68-1.256c-1.445-2.807-2.889-5.619-4.332-8.429l-2.614-5.091a.474.474 0 0 1 .205-.64.473.473 0 0 1 .64.205l2.615 5.091c1.442 2.81 2.887 5.621 4.334 8.434.206.413.419.812.652 1.202.296.506.614.926.975 1.287.725.705 1.629 1.043 2.408.887 1.194-.23 2.867-1.127 2.852-2.401-.018-1.417-.78-3.983-1.423-5.243a.475.475 0 1 1 .847-.433c.706 1.384 1.507 4.051 1.527 5.665.021 1.715-1.851 3.004-3.622 3.347-.183.036-.37.053-.559.053z"/><path fill="#996143" d="M142.754 263.396h-.043c-1.798-.021-2.935-1.718-3.723-3.193a458.003 458.003 0 0 0-1.56-2.89 2829.235 2829.235 0 0 0-4.247-7.901l-1.399-2.598a.476.476 0 0 1 .838-.452l1.399 2.598c1.418 2.633 2.835 5.264 4.246 7.9.522.96 1.047 1.931 1.561 2.894.665 1.244 1.597 2.673 2.899 2.689h.028c.951 0 1.765-.828 2.082-1.654.397-1.04.296-2.235.164-3.161-.564-4.179-2.368-8.264-5.081-11.506a.477.477 0 0 1 .73-.612c2.826 3.379 4.706 7.635 5.293 11.986.148 1.035.257 2.387-.217 3.631-.515 1.343-1.732 2.269-2.97 2.269z"/><path fill="#996143" d="M121.867 263.351c-3.025 0-5.66-2.221-8.018-6.739-.591-1.133-1.072-2.232-1.458-3.115-.271-.621-.506-1.156-.69-1.496-.61-1.128-1.175-2.243-1.383-3.467-.236-1.473.139-2.879 1.006-3.763.884-.915 2.102-1.187 3.281-1.449.378-.084.757-.167 1.123-.274.549-.169.945-.34 1.275-.552.312-.201.613-.464.931-.742.762-.665 1.615-1.414 2.766-1.271.439.056.812.244 1.173.427.272.138.53.268.785.322.76.148 1.48-.349 2.25-.876.784-.534 1.592-1.087 2.579-1.113 1.126-.032 1.975.594 2.821 1.202.727.522 1.414 1.016 2.172 1.035h.023c.4 0 .812-.129 1.249-.266.256-.08.512-.16.772-.218 1.517-.323 3.166-.029 4.654.834a8.133 8.133 0 0 1 2.508 2.265c.074.105.15.202.223.297l.124.161a13.596 13.596 0 0 0 2.04 2.151c1.061.909 2.207 1.603 3.597 2.417.214.125.432.247.652.37 1.253.702 2.549 1.427 3.362 2.685.891 1.39.959 3.29.17 4.732a.477.477 0 0 1-.835-.457c.626-1.145.573-2.655-.136-3.76-.684-1.059-1.822-1.695-3.027-2.37-.224-.125-.447-.25-.666-.377-1.432-.839-2.615-1.557-3.735-2.515a14.51 14.51 0 0 1-2.181-2.3l-.118-.154a10.194 10.194 0 0 1-.244-.325 7.163 7.163 0 0 0-2.21-1.995c-1.284-.744-2.693-1.003-3.973-.728-.23.051-.461.124-.692.196-.497.156-1.017.295-1.574.31-1.058-.027-1.898-.63-2.71-1.214-.749-.539-1.454-1.062-2.237-1.023-.709.019-1.37.47-2.07.948-.9.614-1.83 1.252-2.977 1.022-.384-.08-.71-.245-1.025-.404-.302-.152-.587-.296-.864-.332-.723-.094-1.32.434-2.019 1.045-.33.288-.672.586-1.043.824-.521.336-1.085.531-1.517.664-.393.114-.792.204-1.189.292-1.089.242-2.118.47-2.806 1.183-.658.672-.937 1.772-.748 2.945.183 1.078.689 2.074 1.281 3.17.203.375.433.901.724 1.566.381.87.854 1.953 1.43 3.056 2.532 4.851 5.33 6.831 8.546 6.058a.476.476 0 0 1 .223.925 7.012 7.012 0 0 1-1.595.193z"/><path fill="#636464" d="M125.283 300.496h-38.67a.476.476 0 0 1-.446-.311l-3.331-9.042a.476.476 0 0 1 .446-.641h52.594a.477.477 0 0 1 .308.837l-10.593 9.042a.465.465 0 0 1-.308.115zm-38.338-.952h38.162l9.479-8.09H83.964l2.981 8.09z"/><path fill="#636464" d="M115.346 291.454a.475.475 0 0 1-.445-.308l-2.082-5.517h-17.88l-2.78 5.562a.477.477 0 0 1-.852-.426l2.912-5.825a.476.476 0 0 1 .426-.263h18.503c.198 0 .375.123.445.309l2.198 5.824a.475.475 0 0 1-.445.644z"/><path fill="#636464" d="M126.102 291.454a.475.475 0 0 1-.468-.565l.32-1.671h-11.445a.476.476 0 1 1 0-.952h12.021a.475.475 0 0 1 .467.565l-.428 2.236a.477.477 0 0 1-.467.387z"/><path fill="#02435A" d="M97.491 289.636a1.71 1.71 0 0 1-1.713-1.704c0-.944.769-1.713 1.713-1.713.94 0 1.704.769 1.704 1.713 0 .94-.764 1.704-1.704 1.704zm0-2.465a.757.757 0 1 0 0 0zM102.564 289.636a1.71 1.71 0 0 1-1.713-1.704c0-.944.769-1.713 1.713-1.713s1.713.769 1.713 1.713a1.71 1.71 0 0 1-1.713 1.704zm0-2.465a.757.757 0 0 0 0 1.513.766.766 0 0 0 .761-.752.761.761 0 0 0-.761-.761zM107.637 289.636a1.71 1.71 0 0 1-1.713-1.704c0-.944.769-1.713 1.713-1.713s1.713.769 1.713 1.713a1.71 1.71 0 0 1-1.713 1.704zm0-2.465a.757.757 0 0 0 0 1.513.757.757 0 1 0 0-1.513z"/><path fill="#836E48" d="M196.112 323.814h-79.319a.476.476 0 0 1-.365-.171l-8.718-10.469a.476.476 0 0 1 .365-.781h78.872c.138 0 .268.06.358.163l9.165 10.469a.474.474 0 0 1-.358.789zm-79.096-.952h78.047l-8.332-9.518H109.09l7.926 9.518z"/><path fill="#836E48" d="M123.455 323.814a.47.47 0 0 1-.367-.174l-5.149-6.263a.475.475 0 1 1 .734-.604l5.149 6.263a.475.475 0 0 1-.367.778zM129.384 323.814a.474.474 0 0 1-.368-.174l-2.855-3.474a.476.476 0 0 1 .736-.604l2.855 3.474a.476.476 0 0 1-.368.778zM141.319 323.814a.474.474 0 0 1-.368-.174l-2.855-3.474a.476.476 0 0 1 .736-.604l2.855 3.474a.476.476 0 0 1-.368.778zM154.197 323.814a.474.474 0 0 1-.368-.174l-2.855-3.474a.476.476 0 0 1 .736-.604l2.855 3.474a.476.476 0 0 1-.368.778zM166.132 323.814a.474.474 0 0 1-.368-.174l-2.855-3.474a.476.476 0 0 1 .736-.604l2.855 3.474a.476.476 0 0 1-.368.778zM178.058 323.814a.474.474 0 0 1-.368-.174l-2.855-3.474a.476.476 0 0 1 .736-.604l2.855 3.474a.476.476 0 0 1-.368.778zM189.984 323.814a.474.474 0 0 1-.368-.174l-2.855-3.474a.476.476 0 0 1 .736-.604l2.855 3.474a.476.476 0 0 1-.368.778zM135.628 323.814a.474.474 0 0 1-.367-.173l-5.158-6.263a.477.477 0 0 1 .734-.606l5.158 6.263a.477.477 0 0 1-.367.779zM147.801 323.814a.474.474 0 0 1-.367-.173l-5.158-6.263a.477.477 0 0 1 .734-.606l5.158 6.263a.477.477 0 0 1-.367.779zM159.965 323.814a.47.47 0 0 1-.367-.174l-5.149-6.263a.475.475 0 1 1 .734-.604l5.149 6.263a.475.475 0 0 1-.367.778zM172.138 323.814a.474.474 0 0 1-.367-.173l-5.159-6.263a.477.477 0 0 1 .734-.606l5.159 6.263a.477.477 0 0 1-.367.779zM184.31 323.814a.474.474 0 0 1-.367-.173l-5.158-6.263a.477.477 0 0 1 .734-.606l5.158 6.263a.477.477 0 0 1-.367.779z"/><path fill="#02435A" d="M255.673 310.375h-12.972a.474.474 0 0 1-.398-.216l-21.89-33.464a.477.477 0 0 1 .398-.736h12.144c.158 0 .305.078.393.208l2.324 3.418c1.821-.189 11.433-.998 18.418 2.155 5.101 2.311 8.276 7.162 7.899 12.074-.365 4.775-3.873 8.503-9.658 10.304l3.736 5.514a.474.474 0 0 1-.394.743zm-12.714-.952h11.818l-3.599-5.311a.476.476 0 0 1 .266-.725c5.752-1.607 9.251-5.123 9.597-9.646.346-4.513-2.605-8.988-7.343-11.134-7.341-3.312-18.093-2.058-18.201-2.046a.462.462 0 0 1-.451-.204l-2.343-3.446h-11.012l21.268 32.512z"/><path fill="#02435A" d="M247.384 298.164a.477.477 0 0 1-.394-.208l-7.452-10.974a.476.476 0 0 1 .295-.733c.192-.041 4.767-1.003 8.403.097 3.072.92 5.195 3.386 5.161 5.997-.034 2.681-2.18 4.798-5.888 5.805a.542.542 0 0 1-.125.016zm-6.647-11.11l6.847 10.082c3.066-.916 4.833-2.656 4.86-4.806.028-2.188-1.815-4.275-4.484-5.074-2.596-.786-5.819-.423-7.223-.202zM230.452 280.49h-7.291a.476.476 0 1 1 0-.952h7.291a.476.476 0 1 1 0 .952zM228.872 283.716h-3.331a.476.476 0 1 1 0-.952h3.331a.476.476 0 1 1 0 .952zM233.278 290.446h-3.34a.476.476 0 1 1 0-.952h3.34a.476.476 0 1 1 0 .952zM237.143 296.451h-3.341a.476.476 0 1 1 0-.952h3.341a.476.476 0 1 1 0 .952zM241.54 303.18h-3.331a.476.476 0 1 1 0-.952h3.331a.476.476 0 1 1 0 .952zM234.678 286.933h-7.291a.476.476 0 1 1 0-.952h7.291a.476.476 0 1 1 0 .952zM238.894 293.376h-7.291a.476.476 0 1 1 0-.952h7.291a.476.476 0 1 1 0 .952zM243.119 299.811h-7.29a.476.476 0 1 1 0-.952h7.29a.476.476 0 1 1 0 .952zM247.346 306.254h-7.291a.476.476 0 1 1 0-.952h7.291a.476.476 0 1 1 0 .952z"/><path fill="#636464" d="M405.261 343.677h-70.43a.472.472 0 0 1-.162-.028c-10.688-3.856-15.295-12.965-15.341-13.057a.477.477 0 0 1 .42-.687l17.693-.238 42.591-.562h.007c.098 0 .193.03.273.086l8.919 6.263h12.375c.18 0 .345.101.425.262l3.655 7.271a.476.476 0 0 1-.425.69zm-70.346-.952h69.575l-3.177-6.319h-12.232a.475.475 0 0 1-.273-.086l-8.916-6.261-59.331.787c1.269 2.133 5.771 8.753 14.354 11.879z"/><path fill="#636464" d="M390.033 336.406a.476.476 0 0 1-.476-.476v-10.794h-21.415v4.607a.476.476 0 1 1-.952 0v-5.083c0-.263.213-.476.476-.476h22.366c.263 0 .476.213.476.476v11.27a.474.474 0 0 1-.475.476z"/><path fill="#636464" d="M396.534 336.406a.476.476 0 0 1-.476-.476v-8.728h-6.025a.476.476 0 1 1 0-.952h6.501c.263 0 .476.213.476.476v9.204a.476.476 0 0 1-.476.476z"/><path fill="#02435A" d="M156.5 265.348a2.734 2.734 0 0 1-2.732-2.732c0-1.507 1.225-2.732 2.732-2.732s2.732 1.225 2.732 2.732a2.734 2.734 0 0 1-2.732 2.732zm0-4.512c-.981 0-1.78.798-1.78 1.78 0 .981.798 1.78 1.78 1.78s1.78-.798 1.78-1.78c0-.981-.798-1.78-1.78-1.78zM166.693 264.881a2.729 2.729 0 0 1-2.721-2.732 2.729 2.729 0 0 1 2.721-2.732 2.734 2.734 0 0 1 2.732 2.732 2.734 2.734 0 0 1-2.732 2.732zm0-4.511c-.976 0-1.77.798-1.77 1.78 0 .981.794 1.78 1.77 1.78.982 0 1.78-.798 1.78-1.78s-.798-1.78-1.78-1.78zM176.897 264.414a2.734 2.734 0 0 1-2.732-2.732 2.734 2.734 0 0 1 2.732-2.732 2.734 2.734 0 0 1 2.731 2.732 2.734 2.734 0 0 1-2.731 2.732zm0-4.511c-.982 0-1.78.798-1.78 1.78s.798 1.78 1.78 1.78a1.781 1.781 0 0 0 0-3.56zM187.099 263.948a2.734 2.734 0 0 1-2.732-2.731c0-1.507 1.225-2.732 2.732-2.732s2.732 1.225 2.732 2.732a2.734 2.734 0 0 1-2.732 2.731zm0-4.511c-.982 0-1.78.798-1.78 1.78a1.781 1.781 0 0 0 3.56 0c0-.981-.798-1.78-1.78-1.78zM197.293 263.482a2.73 2.73 0 0 1-2.722-2.732 2.73 2.73 0 0 1 2.722-2.732 2.734 2.734 0 0 1 2.732 2.732 2.736 2.736 0 0 1-2.732 2.732zm0-4.511c-.976 0-1.771.798-1.771 1.78s.795 1.78 1.771 1.78c.982 0 1.78-.798 1.78-1.78s-.799-1.78-1.78-1.78zM207.495 263.016a2.734 2.734 0 0 1-2.732-2.732 2.734 2.734 0 0 1 2.732-2.732 2.734 2.734 0 0 1 2.732 2.732 2.734 2.734 0 0 1-2.732 2.732zm0-4.512c-.981 0-1.78.798-1.78 1.78s.798 1.78 1.78 1.78 1.78-.798 1.78-1.78-.798-1.78-1.78-1.78z"/><path fill="#636464" d="M184.844 255.678a.476.476 0 0 1-.476-.476v-4.673c0-.253.198-.461.45-.475l40.697-2.265a.444.444 0 0 1 .353.129c.095.09.149.215.149.346v4.539a.476.476 0 1 1-.952 0v-4.037l-39.745 2.213v4.222a.476.476 0 0 1-.476.477z"/><path fill="#636464" d="M189.355 255.43a.476.476 0 0 1-.476-.476v-4.673a.476.476 0 1 1 .952 0v4.673a.475.475 0 0 1-.476.476zM193.809 255.164a.476.476 0 0 1-.476-.476v-4.407a.476.476 0 1 1 .952 0v4.407a.476.476 0 0 1-.476.476zM198.263 254.479a.476.476 0 0 1-.476-.476v-4.217c0-.263.213-.485.476-.485s.476.204.476.467v4.236a.476.476 0 0 1-.476.475zM202.727 254.479a.476.476 0 0 1-.476-.476v-4.464a.476.476 0 1 1 .952 0v4.464a.476.476 0 0 1-.476.476zM207.181 254.221a.476.476 0 0 1-.476-.476v-4.416a.476.476 0 1 1 .952 0v4.416a.476.476 0 0 1-.476.476zM211.645 253.527a.476.476 0 0 1-.476-.476v-4.017a.476.476 0 1 1 .952 0v4.017a.476.476 0 0 1-.476.476zM216.099 253.527a.476.476 0 0 1-.476-.476v-4.264a.476.476 0 1 1 .952 0v4.264a.476.476 0 0 1-.476.476zM220.563 253.527a.476.476 0 0 1-.476-.476v-4.512a.476.476 0 1 1 .952 0v4.512a.476.476 0 0 1-.476.476z"/><path fill="#FFF" d="M140.323 300.496h-6.339a.476.476 0 1 1 0-.952h6.339a.476.476 0 1 1 0 .952zM150.528 300.496h-6.339a.476.476 0 1 1 0-.952h6.339a.476.476 0 1 1 0 .952zM160.734 300.496h-6.339a.476.476 0 1 1 0-.952h6.339a.476.476 0 1 1 0 .952zM170.938 300.496H164.6a.476.476 0 1 1 0-.952h6.338a.476.476 0 1 1 0 .952zM181.144 300.496h-6.339a.476.476 0 1 1 0-.952h6.339a.476.476 0 1 1 0 .952zM191.349 300.496h-6.339a.476.476 0 1 1 0-.952h6.339a.476.476 0 1 1 0 .952zM201.553 300.496h-6.338a.476.476 0 1 1 0-.952h6.338a.476.476 0 1 1 0 .952zM228.758 272.771h-.01a201.218 201.218 0 0 0-6.346-.031.47.47 0 0 1-.481-.47.474.474 0 0 1 .47-.481c2.086-.024 4.231-.014 6.378.031a.476.476 0 0 1-.011.951zM238.991 273.235l-.034-.001c-2.146-.153-4.277-.27-6.336-.349a.476.476 0 0 1 .019-.951h.019c2.068.079 4.21.197 6.366.35a.476.476 0 0 1-.034.951zM249.171 274.269a.345.345 0 0 1-.064-.005 157.728 157.728 0 0 0-6.295-.714.477.477 0 0 1-.429-.519c.025-.261.242-.443.519-.429 2.156.202 4.287.443 6.332.719a.477.477 0 1 1-.063.948zM259.225 276.048a.477.477 0 0 1-.105-.012 108.494 108.494 0 0 0-6.196-1.201.476.476 0 0 1-.392-.547.473.473 0 0 1 .547-.392c2.168.357 4.272.765 6.251 1.212a.475.475 0 0 1-.105.94zM268.964 278.925a.461.461 0 0 1-.17-.032 63.517 63.517 0 0 0-5.95-1.929.478.478 0 0 1-.333-.586.48.48 0 0 1 .586-.333 65.008 65.008 0 0 1 6.038 1.958.476.476 0 0 1-.171.922zM277.802 283.597a.476.476 0 0 1-.286-.096c-1.459-1.099-3.174-2.119-5.245-3.119a.476.476 0 1 1 .415-.857c2.127 1.027 3.893 2.079 5.403 3.216a.475.475 0 0 1-.287.856zM283.766 291.063a.475.475 0 0 1-.446-.31c-.632-1.702-1.67-3.328-3.084-4.836a.475.475 0 1 1 .693-.651c1.502 1.6 2.606 3.334 3.283 5.156a.476.476 0 0 1-.446.641zM283.924 300.268a.476.476 0 0 1-.452-.626c.646-1.939.862-3.801.64-5.535a.477.477 0 0 1 .945-.121c.239 1.877.01 3.88-.681 5.957a.478.478 0 0 1-.452.325zM279.288 308.576a.477.477 0 0 1-.376-.768c1.31-1.681 2.35-3.293 3.181-4.927a.474.474 0 1 1 .847.431c-.858 1.689-1.93 3.351-3.277 5.081a.477.477 0 0 1-.375.183zM272.558 315.616a.475.475 0 0 1-.312-.836 52.409 52.409 0 0 0 4.326-4.19.48.48 0 0 1 .673-.03.478.478 0 0 1 .03.673 53.373 53.373 0 0 1-4.406 4.266.47.47 0 0 1-.311.117zM264.577 321.473a.477.477 0 0 1-.249-.882c1.563-.957 3.212-2.094 5.041-3.475a.477.477 0 0 1 .573.76c-1.853 1.399-3.527 2.552-5.117 3.527a.476.476 0 0 1-.248.07zM255.746 326.205a.476.476 0 0 1-.198-.909 79.86 79.86 0 0 0 5.538-2.789.477.477 0 0 1 .463.833 81.126 81.126 0 0 1-5.605 2.823.493.493 0 0 1-.198.042zM246.31 329.838a.477.477 0 0 1-.153-.926l1.067-.357c.639-.212 1.277-.423 1.91-.649l2.931-1.11a.475.475 0 1 1 .336.89l-2.94 1.113c-.648.231-1.294.445-1.939.659l-1.061.355a.493.493 0 0 1-.151.025zM236.464 332.405a.476.476 0 0 1-.091-.943c2.107-.416 4.183-.95 6.127-1.459a.476.476 0 1 1 .242.92c-1.959.514-4.051 1.05-6.185 1.472a.427.427 0 0 1-.093.01zM226.37 333.98a.475.475 0 0 1-.036-.95c.704-.056 1.401-.153 2.099-.25.344-.047.688-.096 1.033-.138a52.788 52.788 0 0 0 3.11-.471.476.476 0 0 1 .175.935c-.921.172-1.928.325-3.167.481-.341.043-.68.09-1.021.137-.702.098-1.428.199-2.154.256h-.039zM216.154 334.614a.476.476 0 0 1-.015-.952c.377-.011.755-.019 1.132-.027a57.663 57.663 0 0 0 2.036-.064l3.172-.191c.291-.028.489.184.504.446a.476.476 0 0 1-.446.504l-3.175.191a59.86 59.86 0 0 1-2.073.066 83.85 83.85 0 0 0-1.121.027h-.014zM212.274 334.628h-.003c-1.778-.012-3.553-.057-5.329-.101l-1.042-.026a.477.477 0 0 1-.464-.488c.007-.262.188-.471.488-.464l1.042.026c1.77.045 3.54.089 5.311.101a.476.476 0 0 1-.003.952zM202.031 334.405h-.01l-6.361-.136a.477.477 0 0 1 .01-.952h.01l6.361.136a.477.477 0 0 1-.01.952zM191.789 334.204h-.007l-6.362-.105a.476.476 0 0 1 .008-.951h.007l6.362.105a.476.476 0 0 1-.008.951zM181.545 334.057h-.006l-6.363-.07a.476.476 0 0 1-.47-.481c.003-.262.234-.49.481-.47l6.363.07a.476.476 0 0 1-.005.951zM171.3 333.95h-.003l-6.364-.04a.476.476 0 0 1 .003-.952h.003l6.364.04a.476.476 0 0 1-.003.952zM161.055 333.886h-.002l-6.363-.027a.476.476 0 0 1 .002-.952h.002l6.363.027a.476.476 0 0 1-.002.952zM150.811 333.85l-6.365-.017a.476.476 0 0 1 .001-.952h.001l6.364.017a.476.476 0 0 1-.001.952zM134.202 333.837a.476.476 0 1 1 0-.952l6.363-.003a.476.476 0 1 1 0 .952l-6.363.003zM123.957 333.857a.476.476 0 0 1-.001-.952l6.363-.018h.001a.476.476 0 0 1 .001.952l-6.364.018zM113.712 333.892a.476.476 0 0 1-.002-.952l6.364-.024h.002a.476.476 0 0 1 .002.952l-6.364.024h-.002z"/><g><path fill="#FFF" d="M215.861 306.254a.477.477 0 0 1-.328-.131l-13.248-12.611a.476.476 0 1 1 .656-.69l13.248 12.611a.476.476 0 0 1-.328.821z"/></g><g><path fill="#FFF" d="M202.613 306.254a.476.476 0 0 1-.34-.809l12.592-12.878a.477.477 0 0 1 .68.666l-12.592 12.878a.474.474 0 0 1-.34.143z"/></g><g><path fill="#02435A" d="M303.957 318.541a.475.475 0 0 1-.202-.906l6.576-3.087 4.085-4.934-.574-.736a.475.475 0 1 1 .751-.585l.81 1.037a.475.475 0 0 1-.009.596l-4.397 5.312a.449.449 0 0 1-.164.126l-6.672 3.131a.49.49 0 0 1-.204.046z"/></g><g><path fill="#02435A" d="M300.52 314.144a.477.477 0 0 1-.369-.777l4.663-5.711a.473.473 0 0 1 .172-.132l6.312-2.856a.48.48 0 0 1 .572.141l2.712 3.484a.473.473 0 0 1-.084.667.474.474 0 0 1-.667-.084l-2.482-3.188-5.868 2.655-4.592 5.624a.472.472 0 0 1-.369.177z"/></g><g><path fill="#02435A" d="M308.285 313.586c-.099 0-.2-.006-.299-.019a2.409 2.409 0 0 1-1.626-.921 2.446 2.446 0 0 1 .781-3.658 2.426 2.426 0 0 1 3.063.656 2.434 2.434 0 0 1-.013 3.016l-.007.007a2.541 2.541 0 0 1-.4.397c-.43.341-.954.522-1.499.522zm-.003-3.931a1.48 1.48 0 0 0-.914.316 1.493 1.493 0 0 0-.257 2.092 1.477 1.477 0 0 0 2.337 0 1.481 1.481 0 0 0 .005-1.835 1.483 1.483 0 0 0-1.171-.573zm1.537 2.709h.009-.009z"/></g><g><path fill="#996143" d="M206.514 134.511c-.454 0-.895-.03-1.315-.092-1.726-.255-3.912-.748-5.507-2.31a.476.476 0 1 1 .666-.68c1.4 1.37 3.397 1.815 4.981 2.049 1.802.265 4.048-.118 5.717-.98a.476.476 0 0 1 .437.845c-1.447.747-3.289 1.168-4.979 1.168z"/></g><g><path fill="#42241C" d="M225.62 103.839c-.187 0-.381-.037-.58-.112-.317-.124-.771-.234-1.436-.348-1.312-.233-3.023-.37-4.676-.502-.942-.076-1.851-.149-2.634-.236a50.067 50.067 0 0 1-.942-.116c-.166-.025-.454-.132-.582-.579-.222-.777.08-2.47.955-3.215a.477.477 0 0 1 .617.725c-.575.489-.746 1.723-.677 2.15.229.029.477.059.736.089.772.086 1.672.158 2.603.232 1.676.134 3.408.273 4.763.514.737.126 1.235.249 1.614.396.156.058.528.199.821-.512.384-.931.191-2.375-.35-2.617-.24-.108-.348-.389-.24-.629a.477.477 0 0 1 .628-.24c1.136.508 1.39 2.521.842 3.849-.306.744-.841 1.151-1.462 1.151z"/></g><g><path fill="#42241C" d="M203.515 101.217h-.027a7.21 7.21 0 0 1-.913-.082c-1.226-.16-2.627-.569-3.981-.963-1.334-.389-2.594-.757-3.611-.87a4.032 4.032 0 0 0-1.013-.002c-.533.081-1.002-.085-1.306-.473-.572-.731-.415-2.064-.026-2.994.381-.911.968-1.476 1.61-1.55a.476.476 0 0 1 .11.945c-.278.032-.608.414-.841.972-.326.781-.372 1.696-.102 2.041.063.08.165.155.416.118a5.128 5.128 0 0 1 1.259-.003c1.098.123 2.396.502 3.771.902 1.32.385 2.684.783 3.851.936.236.038.457.056.671.066.21-.359.467-1.693.053-2.361a.476.476 0 0 1 .808-.501c.591.954.362 2.648-.048 3.351-.223.382-.489.468-.681.468zm.006-.952h.004-.004z"/></g><g><path fill="#42241C" d="M205.052 149.638a11.01 11.01 0 0 1-1.982-.166c-3.091-.572-6.535-2.487-9.959-5.538-2.047-1.815-4.106-4.06-5.953-6.492-3.368-4.437-5.679-9.033-5.751-11.438-.119-3.999 1.273-8.003 2.501-11.534l.243-.699c.309-.892.617-1.779.894-2.665.385-1.184.68-2.235.905-3.219.336-1.465.575-2.855.732-4.249a.489.489 0 0 1 .526-.42c.261.03.449.265.42.527a38.115 38.115 0 0 1-1.677 7.65 92.238 92.238 0 0 1-.902 2.688l-.242.699c-1.26 3.624-2.563 7.37-2.449 11.195.064 2.187 2.35 6.666 5.557 10.89 1.81 2.384 3.825 4.581 5.828 6.356 3.295 2.936 6.579 4.773 9.498 5.313 3.518.643 8.995-.751 14.663-3.722a46.421 46.421 0 0 0 5.013-3.043c3.475-2.442 6.067-5.044 7.296-7.326 1.689-3.117 1.368-7.949 1.059-12.621-.097-1.454-.188-2.827-.221-4.158-.009-.375-.019-.712-.019-1.05 0-1.086.054-2.025.165-2.87.177-1.248.349-2.287.529-3.182.742-3.682 1.63-5.228 2.755-7.185.984-1.711 2.099-3.65 3.487-7.612a.475.475 0 1 1 .898.315c-1.417 4.045-2.605 6.111-3.56 7.772-1.082 1.882-1.936 3.368-2.647 6.898a55.163 55.163 0 0 0-.519 3.123 20.9 20.9 0 0 0-.157 2.741c0 .329.008.659.018.997.033 1.34.125 2.704.22 4.149.319 4.807.648 9.778-1.171 13.136-1.298 2.409-3.992 5.127-7.588 7.653a47.175 47.175 0 0 1-5.116 3.106c-4.889 2.564-9.682 3.981-13.294 3.981z"/></g><g><path fill="#002A38" d="M222.452 99.891c-2.265 0-4.477-.153-6.46-.322l-1.716-.153c-3.285-.306-7.007-.653-10.522-1.3-1.787-.328-3.3-.687-4.623-1.099-1.653-.517-3.405-1.103-5.015-1.882a19.106 19.106 0 0 1-2.835-1.637 21.701 21.701 0 0 1-3.26-2.821c-.977-1.023-1.495-2.273-1.587-3.822-.086-1.266.104-2.569.305-3.949.074-.515.151-1.036.211-1.559a.478.478 0 0 1 .731-.345c.218.14 22.034 13.897 50.215 6.308a.475.475 0 1 1 .247.919c-25.9 6.975-46.508-3.832-50.339-6.046-.039.288-.081.575-.123.86-.193 1.328-.375 2.583-.296 3.752.079 1.337.5 2.36 1.325 3.225a20.884 20.884 0 0 0 3.116 2.699 18.215 18.215 0 0 0 2.7 1.558c1.56.755 3.271 1.327 4.889 1.833 1.285.4 2.762.75 4.512 1.071 3.473.639 7.173.984 10.439 1.288l1.712.153c2.993.254 6.515.474 9.927.171 2.006-.183 3.743-.521 5.309-1.034a7.82 7.82 0 0 0 3.259-2.055c.797-.847 1.453-1.917 1.947-3.177a.476.476 0 0 1 .887.348c-.539 1.374-1.26 2.546-2.142 3.484a8.751 8.751 0 0 1-3.654 2.306c-1.635.536-3.441.888-5.52 1.078a42.668 42.668 0 0 1-3.639.148z"/></g><g><path fill="#002A38" d="M234.916 96.506a.476.476 0 0 1-.014-.951l4.808-.143 1.389-4.102a.477.477 0 0 1 .901.305l-1.495 4.416a.475.475 0 0 1-.437.323l-5.139.152h-.013z"/></g><g><path fill="#02435A" d="M155.514 210.495c-.436 0-.995-.078-1.62-.23-5.345-1.269-16.824-7.356-21.937-13.64a14.478 14.478 0 0 1-1.787-2.663.475.475 0 1 1 .847-.433c.423.828.986 1.666 1.674 2.491 4.995 6.137 16.202 12.08 21.425 13.319.635.153 1.199.224 1.572.197l.042.951a2.962 2.962 0 0 1-.216.008z"/></g><g><path fill="#02435A" d="M253.056 215.628a.476.476 0 1 1 0-.952c.961 0 1.904-.05 2.803-.15 9.289-.941 18.013-6.462 22.772-14.409a.475.475 0 1 1 .816.488c-4.91 8.2-13.91 13.896-23.487 14.867-.931.104-1.908.156-2.904.156z"/></g><g><path fill="#636464" d="M188.593 240.194c-.249 0-.549-.008-.888-.031-3.042-.224-8.427-1.607-10.352-8.357-.452-1.56-.685-3.339-.694-5.29a.474.474 0 0 1 .825-.325l12.219 13.173a.474.474 0 0 1-.299.797 8.281 8.281 0 0 1-.811.033zm-10.942-12.422c.082 1.371.288 2.635.617 3.771v.002c1.766 6.194 6.712 7.463 9.505 7.669.185.013.357.02.515.024l-10.637-11.466z"/></g><g><path fill="#636464" d="M183.254 233.597a.476.476 0 0 1-.329-.82l1.913-1.827a.476.476 0 1 1 .658.688l-1.913 1.827a.476.476 0 0 1-.329.132z"/></g><g><path fill="#636464" d="M186.319 232.131c-1.023 0-1.856-.837-1.856-1.865s.833-1.865 1.856-1.865c1.029 0 1.865.837 1.865 1.865s-.836 1.865-1.865 1.865zm0-2.779a.91.91 0 0 0-.904.914.91.91 0 0 0 .904.914c.504 0 .914-.41.914-.914a.905.905 0 0 0-.914-.914z"/></g><g><path fill="#046F97" d="M81.226 274.528a8.71 8.71 0 0 1-1.974-.217c-2.573-.602-4.158-2.024-5.316-3.062-1.116-1.002-1.74-1.509-2.506-1.237-1.062.378-1.791.966-2.496 1.535-.701.564-1.426 1.148-2.432 1.485-2.178.72-9.862 1.743-14.08-1.501a.477.477 0 0 1-.136-.59c.03-.06 2.989-6.019 3.599-10.642.039-.307.086-.626.135-.934.431-2.822 1.693-9.412 4.103-9.624 1.512-.139 6.975-1.137 8.253-1.372l1.335-3.711a.473.473 0 0 1 .53-.308l6.348 1.113a.475.475 0 0 1 .374.331c1.187 3.924 2.978 8.314 3.803 8.562.3.09.691.115 1.104.142 1.597.105 3.784.249 4.462 4.201.043.239.077.428.125.624l.005.019c.931 4.548 3.781 11.561 3.81 11.632a.474.474 0 0 1-.177.575c-.21.138-4.527 2.979-8.869 2.979zm-9.378-5.546c.987 0 1.805.733 2.724 1.558 1.14 1.023 2.561 2.297 4.897 2.843 3.871.911 8.514-1.663 9.77-2.422-.611-1.53-2.872-7.339-3.709-11.418-.053-.213-.09-.418-.126-.615-.563-3.279-2.106-3.38-3.598-3.479-.468-.031-.911-.059-1.316-.181-1.622-.488-3.647-6.618-4.354-8.917l-5.666-.994-1.292 3.591a.476.476 0 0 1-.361.307c-.28.052-6.857 1.272-8.61 1.434-.935.082-2.39 3.201-3.248 8.82-.046.301-.094.611-.131.911-.55 4.17-2.85 9.194-3.515 10.583 4.02 2.755 11.165 1.693 12.888 1.126.843-.283 1.471-.788 2.136-1.324.731-.589 1.56-1.257 2.773-1.689.258-.092.503-.134.738-.134z"/></g><g><path fill="#636464" d="M362.67 311.327a.475.475 0 0 1-.392-.745l12.287-17.922a.476.476 0 0 1 .868.257c.003.125.184 12.67-12.569 18.368a.455.455 0 0 1-.194.042zm11.692-16.689l-10.271 14.982c8.034-4.359 9.859-11.685 10.271-14.982z"/></g></svg>